<svg width="301" height="63" fill="none" xmlns="http://www.w3.org/2000/svg"><path d="M16.6007 30.1417l4.442-7.7271 3.8137 6.6388-7.4328 12.9297h14.8602l3.798 6.6111H6.00092L16.6007 30.1417zm6.4463-11.2216l3.6617-6.3741L47.432 48.5941h-7.3389L23.047 18.9201zM28.7468 9h7.3291l22.7545 39.5942H51.492L28.7468 9z" fill="url(#paint0_linear)"/><path d="M6 48.5941h30.0809l-3.798-6.6112H17.4227L6 48.5941z" fill="#FFAF38"/><path d="M86.5644 34.7262H74.888L72.2656 42h-3.7901l10.6428-27.8703h3.2158L92.9961 42h-3.771l-2.6607-7.2738zm-10.5662-3.0244h9.4752l-4.7472-13.0355-4.728 13.0355zm25.4198 1.5122l.536 3.6752.785-3.3115 5.513-19.448h3.101l5.379 19.448.765 3.3689.594-3.7518 4.326-19.0651h3.694L119.354 42h-3.35l-5.742-20.3093-.44-2.1248-.441 2.1248L103.428 42h-3.35l-6.7374-27.8703h3.6752l4.4022 19.0843zm37.001-3.637c-3.152-.906-5.449-2.0162-6.891-3.3306-1.429-1.3272-2.144-2.9606-2.144-4.9003 0-2.1949.875-4.007 2.623-5.4362 1.761-1.442 4.045-2.163 6.853-2.163 1.914 0 3.617.37 5.11 1.1102 1.506.7401 2.667 1.761 3.484 3.0626.83 1.3017 1.244 2.7245 1.244 4.2686h-3.694c0-1.6844-.536-3.0052-1.608-3.9623-1.072-.9698-2.584-1.4548-4.536-1.4548-1.813 0-3.229.402-4.25 1.206-1.008.7912-1.512 1.895-1.512 3.3115 0 1.1357.478 2.0992 1.436 2.8904.969.7784 2.609 1.493 4.919 2.1438 2.322.6509 4.135 1.3719 5.436 2.1631 1.315.7784 2.284 1.6908 2.91 2.7372.638 1.0464.957 2.2779.957 3.6944 0 2.2587-.881 4.0708-2.642 5.4362-1.761 1.3527-4.115 2.029-7.063 2.029-1.914 0-3.701-.3637-5.36-1.091-1.659-.7402-2.941-1.7483-3.847-3.0244-.893-1.2761-1.34-2.7245-1.34-4.3452h3.694c0 1.6845.619 3.018 1.857 4.0006 1.251.9699 2.916 1.4548 4.996 1.4548 1.94 0 3.426-.3956 4.46-1.1868 1.034-.7912 1.55-1.8695 1.55-3.2349 0-1.3655-.478-2.4183-1.435-3.1584-.957-.7529-2.693-1.4931-5.207-2.2205zm40.179 5.1492h-11.677L164.299 42h-3.79l10.643-27.8703h3.215L185.029 42h-3.771l-2.66-7.2738zm-10.566-3.0244h9.475l-4.747-13.0355-4.728 13.0355zm23.525-10.4131l.095 2.297c1.519-1.7866 3.567-2.6799 6.145-2.6799 2.897 0 4.868 1.1103 5.915 3.3307.689-.9954 1.582-1.7993 2.679-2.4119 1.111-.6125 2.419-.9188 3.925-.9188 4.543 0 6.852 2.4055 6.929 7.2165V42h-3.541V28.3328c0-1.4803-.339-2.5841-1.015-3.3115-.676-.7401-1.812-1.1102-3.407-1.1102-1.315 0-2.406.3956-3.273 1.1868-.868.7784-1.372 1.8312-1.513 3.1584V42h-3.56V28.4285c0-3.0116-1.474-4.5174-4.422-4.5174-2.322 0-3.911.989-4.766 2.967V42h-3.541V21.2887h3.35zM240.1 31.874c0 3.152-.721 5.6915-2.163 7.6184-1.442 1.927-3.394 2.8904-5.857 2.8904-2.514 0-4.492-.7975-5.934-2.3927v9.9728h-3.541V21.2887h3.234l.173 2.297c1.442-1.7866 3.445-2.6799 6.01-2.6799 2.489 0 4.454.938 5.896 2.8139 1.455 1.8759 2.182 4.4855 2.182 7.8289v.3254zm-3.541-.4019c0-2.3353-.498-4.1793-1.493-5.532-.996-1.3527-2.361-2.029-4.097-2.029-2.143 0-3.751.9507-4.823 2.8521v9.8963c1.059 1.8886 2.68 2.8329 4.862 2.8329 1.697 0 3.043-.6699 4.039-2.0098 1.008-1.3527 1.512-3.3562 1.512-6.0105zM248.465 42h-3.541V12.5983h3.541V42zm9.533 0h-3.542V21.2887h3.542V42zm-3.829-26.205c0-.5742.172-1.0592.517-1.4548.357-.3956.881-.5933 1.57-.5933.689 0 1.212.1977 1.569.5933.358.3956.536.8806.536 1.4548 0 .5743-.178 1.0528-.536 1.4356-.357.3829-.88.5743-1.569.5743s-1.213-.1914-1.57-.5743c-.345-.3828-.517-.8613-.517-1.4356zM265.424 42V24.0259h-3.273v-2.7372h3.273V19.164c0-2.2205.594-3.9369 1.781-5.1492 1.186-1.2123 2.865-1.8184 5.034-1.8184.817 0 1.627.1084 2.431.3254l-.191 2.8712c-.6-.1148-1.238-.1722-1.915-.1722-1.148 0-2.035.3381-2.66 1.0145-.626.6636-.938 1.6206-.938 2.8712v2.1822h4.421v2.7372h-4.421V42h-3.542zm18.664-5.1874l4.823-15.5239h3.79l-8.326 23.908c-1.289 3.4455-3.337 5.1682-6.145 5.1682l-.67-.0574-1.32-.2488v-2.8713l.957.0766c1.199 0 2.131-.2425 2.794-.7274.677-.4849 1.232-1.3718 1.666-2.6607l.784-2.1056-7.388-20.4816h3.866l5.169 15.5239z" fill="#fff"/><defs><linearGradient id="paint0_linear" x1="39.8096" y1="25.8134" x2="28.5635" y2="45.6178" gradientUnits="userSpaceOnUse"><stop stop-color="#FFC300"/><stop offset="1" stop-color="#FF9000"/></linearGradient></defs></svg>