<svg version="1.1" id="Layer_1" xmlns="http://www.w3.org/2000/svg" x="0" y="0" viewBox="0 0 115 40" xml:space="preserve"><style>.st1{fill:#fff}</style><path d="M111.16 40H3.91C1.76 40 .02 38.26.02 36.11V4.04C.02 1.89 1.76.15 3.91.15h107.25c2.15 0 3.89 1.74 3.89 3.89v32.07c0 2.15-1.74 3.89-3.89 3.89z" fill="#393c44"/><path class="st1" d="M10.37 10.03v8.57c.93-1.26 2.33-1.67 3.61-1.67 1.58 0 3.01.59 4.02 1.54 1.12 1.05 1.82 2.62 1.82 4.53 0 1.78-.62 3.42-1.82 4.61-1.01 1.03-2.26 1.57-3.97 1.57-2.05 0-3.09-.95-3.66-1.78v1.39H6.63V10.03h3.74zm.6 10.95c-.44.46-.82 1.13-.82 2.11 0 .95.41 1.64.85 2.05.59.57 1.41.85 2.11.85.64 0 1.36-.26 1.93-.8.54-.51.9-1.26.9-2.11 0-.92-.36-1.67-.9-2.18-.59-.57-1.23-.77-1.98-.77-.8.01-1.5.24-2.09.85zM25.08 17.35v6.32c0 .51.05 1.31.64 1.85.26.23.72.54 1.54.54.69 0 1.23-.23 1.56-.54.54-.51.62-1.28.62-1.85v-6.32h3.74v6.68c0 1.31-.13 2.54-1.28 3.67-1.31 1.28-3.23 1.49-4.59 1.49-1.41 0-3.31-.21-4.62-1.49-1.05-1.03-1.26-2.18-1.26-3.44v-6.91h3.65zM47.88 28.79h-3.74V27.4c-.57.82-1.61 1.78-3.66 1.78-1.71 0-2.96-.54-3.97-1.57-1.19-1.18-1.82-2.83-1.82-4.61 0-1.9.7-3.47 1.82-4.53 1.01-.95 2.44-1.54 4.02-1.54 1.27 0 2.67.41 3.61 1.67v-8.57h3.74v18.76zm-8.35-7.88c-.54.51-.9 1.26-.9 2.18 0 .85.36 1.59.9 2.11.57.54 1.28.8 1.93.8.69 0 1.52-.28 2.11-.85.44-.41.85-1.1.85-2.05 0-.98-.39-1.64-.82-2.11-.59-.62-1.28-.85-2.08-.85-.75 0-1.4.2-1.99.77zM52.32 10.3c1.21 0 2.16.95 2.16 2.16 0 1.21-.95 2.16-2.16 2.16-1.21 0-2.16-.95-2.16-2.16.01-1.21.96-2.16 2.16-2.16zm1.87 7.05v11.44h-3.74V17.35h3.74zM60.49 10.03v8.57c.93-1.26 2.33-1.67 3.61-1.67 1.58 0 3.01.59 4.02 1.54 1.12 1.05 1.82 2.62 1.82 4.53 0 1.78-.62 3.42-1.82 4.61-1.01 1.03-2.26 1.57-3.97 1.57-2.05 0-3.09-.95-3.66-1.78v1.39h-3.74V10.03h3.74zm.57 10.95c-.44.46-.82 1.13-.82 2.11 0 .95.41 1.64.85 2.05.59.57 1.41.85 2.11.85.64 0 1.36-.26 1.93-.8.54-.51.9-1.26.9-2.11 0-.92-.36-1.67-.9-2.18-.59-.57-1.23-.77-1.98-.77-.81.01-1.5.24-2.09.85zM80.26 17.35H84v11.44h-3.74V27.4c-1.01 1.54-2.46 1.77-3.42 1.77-1.66 0-3.06-.41-4.33-1.74-1.22-1.28-1.69-2.77-1.69-4.28 0-1.92.73-3.57 1.79-4.62 1.01-1 2.41-1.56 4.02-1.56.99 0 2.57.23 3.63 1.67v-1.29zm-4.69 3.61c-.39.39-.85 1.05-.85 2.08s.44 1.7.77 2.05c.51.54 1.31.9 2.18.9.74 0 1.44-.31 1.93-.8.49-.46.9-1.18.9-2.16 0-.82-.31-1.59-.85-2.11-.57-.54-1.39-.8-2.05-.8-.8.02-1.54.35-2.03.84zM93.21 20.26c-.57-.33-1.31-.64-2.03-.64-.39 0-.82.1-1.05.33-.13.13-.23.33-.23.51 0 .26.18.41.36.51.26.15.64.23 1.1.39l.98.31c.64.21 1.31.46 1.9 1 .67.62.9 1.31.9 2.18 0 1.52-.67 2.49-1.18 3.01-1.13 1.13-2.52 1.31-3.72 1.31-1.54 0-3.21-.33-4.7-1.64l1.57-2.49c.36.31.87.67 1.26.85.51.26 1.05.36 1.54.36.23 0 .82 0 1.16-.26.23-.18.39-.46.39-.74 0-.21-.08-.46-.41-.67-.26-.15-.59-.26-1.13-.41l-.92-.28c-.67-.21-1.36-.57-1.85-1.05-.54-.57-.82-1.21-.82-2.08 0-1.1.44-2.03 1.1-2.65 1.03-.95 2.41-1.16 3.47-1.16 1.7 0 2.88.44 3.8.98l-1.49 2.33zM108.43 23.73h-8.55c0 .62.23 1.44.69 1.95.57.62 1.34.72 1.9.72.54 0 1.1-.1 1.49-.33.05-.03.49-.31.8-.95l3.49.36c-.51 1.62-1.54 2.47-2.21 2.88-1.1.67-2.34.85-3.62.85-1.72 0-3.24-.31-4.57-1.64-1-1-1.72-2.52-1.72-4.42 0-1.64.59-3.34 1.75-4.52 1.39-1.39 3.11-1.64 4.39-1.64 1.28 0 3.13.23 4.55 1.72 1.36 1.44 1.62 3.24 1.62 4.65v.37zm-3.4-2.25c-.03-.1-.21-.82-.74-1.34-.41-.39-1-.64-1.75-.64-.95 0-1.52.39-1.87.74-.28.31-.54.72-.64 1.23h5z"/></svg>