<svg width="201" height="22" fill="none" xmlns="http://www.w3.org/2000/svg"><path d="M0 18.6727h3.00692v-6.9462h7.57558v6.9462h3.0069V2.12305h-3.0069v7.01614H3.00692V2.12305H0V18.6727zM17.3118 12.7288c0 3.7062 2.6806 6.2237 6.6898 6.2237 3.9859 0 6.6665-2.5175 6.6665-6.2237V2.12305h-3.0069V12.7055c0 2.2377-1.4685 3.4964-3.6829 3.4964-2.2144 0-3.6596-1.2587-3.6596-3.4731V2.12305h-3.0069V12.7288zM33.8941 18.6727h3.0069l.6993-9.2538c.0699-1.09554.0233-2.58735.0233-2.58735h.0466s.5128 1.63166.9091 2.58735l2.6573 6.4101h2.6339l2.6806-6.4101c.3963-.95569.8858-2.56404.8858-2.56404h.0466s-.0466 1.4685.0233 2.56404l.6993 9.2538h2.9836L49.8611 2.12305h-3.2167l-3.24 8.18165c-.373.979-.8159 2.4241-.8159 2.4241h-.0466s-.4662-1.4451-.8391-2.4241l-3.24-8.18165h-3.2167l-1.352 16.54965zM64.2647 18.6727h3.1001L61.5375 2.12305h-3.1468L52.5633 18.6727h3.1002l1.3985-4.2423h5.8041l1.3986 4.2423zM59.999 4.99011s.3497 1.63166.6527 2.56404l1.4685 4.42875h-4.3356l1.4685-4.42875c.3264-.93238.6993-2.56404.6993-2.56404h.0466zM69.2463 18.6727h3.007V9.13919c0-.979-.1632-2.56404-.1632-2.56404h.0466s.7459 1.60835 1.3753 2.56404l6.2702 9.53351h2.9836V2.12305h-2.9836v9.55685c0 .979.1632 2.5641.1632 2.5641h-.0467s-.7459-1.6084-1.3752-2.5641l-6.2702-9.55685h-3.007V18.6727z" fill="#fff"/><path d="M90.8959 10.3284c0 4.8717 3.4964 8.6245 8.5545 8.6245 4.2186 0 6.5036-2.6806 6.5036-2.6806l-1.585-2.1678s-1.935 2.0979-4.802 2.0979c-3.4498 0-5.571-2.7739-5.571-5.9206 0-3.07688 2.0513-5.68754 5.5477-5.68754 2.6343 0 4.5223 1.74821 4.5223 1.74821l1.445-2.2377s-2.075-2.26102-6.1072-2.26102c-4.8717 0-8.5079 3.68289-8.5079 8.48465zM107.257 10.2818c0 4.8716 3.683 8.6711 8.555 8.6711 4.871 0 8.554-3.7995 8.554-8.6711 0-4.73185-3.683-8.43805-8.554-8.43805-4.872 0-8.555 3.7062-8.555 8.43805zm3.1 0c0-3.26335 2.424-5.68754 5.455-5.68754 3.03 0 5.454 2.42419 5.454 5.68754 0 3.4031-2.424 5.9206-5.454 5.9206-3.031 0-5.455-2.5175-5.455-5.9206zM127.196 18.6732h3.007V9.13961c0-.979-.163-2.56404-.163-2.56404h.047s.745 1.60835 1.375 2.56404l6.27 9.53359h2.984V2.12346h-2.984v9.55684c0 .979.163 2.5641.163 2.5641h-.046s-.746-1.6084-1.376-2.5641l-6.27-9.55684h-3.007V18.6732zM148.099 18.6732h3.007V4.71081h5.431V2.12346h-13.869v2.58735h5.431V18.6732zM158.484 18.6732h10.28v-2.5874h-7.273v-4.4521h5.571V9.04637h-5.571V4.71081h6.9V2.12346h-9.907V18.6732zM171.659 18.6732h3.007V9.13961c0-.979-.163-2.56404-.163-2.56404h.046s.746 1.60835 1.376 2.56404l6.27 9.53359h2.983V2.12346h-2.983v9.55684c0 .979.163 2.5641.163 2.5641h-.047s-.746-1.6084-1.375-2.5641l-6.27-9.55684h-3.007V18.6732zM192.562 18.6732h3.007V4.71081H201V2.12346h-13.869v2.58735h5.431V18.6732zM82.5679 19.7711c0-.2199.025-.4352.0749-.6458.0499-.2107.1349-.438.255-.6819h.704c-.1367.2384-.2356.4592-.2966.6625-.061.2014-.0914.412-.0914.6319 0 .2754.0572.5239.1718.7456.1127.2218.2726.3945.4795.5184.207.1219.437.1829.6902.1829.2587 0 .4906-.061.6957-.1829.2051-.122.364-.2939.4767-.5156.1109-.2217.1663-.4712.1663-.7484 0-.2125-.0304-.4148-.0914-.607-.061-.194-.171-.4379-.3299-.7317h.7041c.1312.2513.2245.4823.2799.6929.0554.2107.0832.4564.0832.7373 0 .4084-.0813.7733-.244 1.0948-.1626.3216-.3963.5747-.7012.7595-.3067.1829-.6421.2744-1.0062.2744-.3899 0-.74-.0942-1.0505-.2827-.3104-.1903-.5497-.4509-.7178-.7816-.1682-.3327-.2523-.7068-.2523-1.1226zM82.6178 16.2898c0-.3641.1007-.6606.3021-.8898.2015-.2291.4639-.3437.7872-.3437.2199 0 .4121.0573.5765.1719.1627.1127.2911.2809.3853.5044.0665-.1238.1571-.2337.2717-.3298.1145-.0961.3076-.2153.5793-.3576.4693-.2365.7927-.412.9701-.5266v.8343c-.085.0573-.2208.1349-.4075.2328-.412.2144-.6892.3715-.8315.4712-.1441.0998-.2458.1959-.3049.2883-.061.0924-.0915.1986-.0915.3188v.2716H86.49v.7484h-3.8722v-1.3942zm1.652.169c0-.1958-.049-.3492-.1469-.4601-.0979-.1127-.2319-.169-.4019-.169-.1774 0-.3095.0554-.3964.1663-.0887.1108-.133.2688-.133.4739v.4657h1.0782v-.4768zM82.5679 12.2125c0-.401.0832-.7613.2495-1.081.1644-.3215.4028-.5774.7151-.7678.3104-.1903.6514-.2854 1.0228-.2854.3622 0 .6985.0933 1.0089.2799.3086.1848.5488.4398.7207.765.17.3234.255.6883.255 1.0949 0 .4009-.0869.7659-.2606 1.0948-.1737.3271-.4121.5821-.7151.765-.3049.1829-.6412.2744-1.0089.2744-.3548 0-.6883-.0915-1.0006-.2744-.3123-.1829-.5544-.4352-.7262-.7567-.1737-.3215-.2606-.6911-.2606-1.1087zm1.9874 1.3665c.2568 0 .4878-.0582.6929-.1746.2051-.1165.364-.2781.4768-.4851.1127-.2088.169-.4444.169-.7068 0-.3973-.1247-.7234-.3741-.9784-.2495-.2569-.571-.3853-.9646-.3853-.2569 0-.4878.0582-.693.1746-.2069.1146-.3668.2772-.4795.4879-.1127.2088-.169.4444-.169.7068 0 .2623.0572.4989.1718.7095.1127.2088.2716.3696.4767.4823.2033.1127.4343.1691.693.1691zM82.5679 8.25167c0-.37696.0943-.74006.2828-1.08931h.6652c-.2421.40099-.3631.75669-.3631 1.06713 0 .18848.0369.33631.1108.44348.0721.10533.1691.15799.2911.15799.146 0 .2808-.09886.4047-.29658.0369-.05543.1404-.26886.3104-.64027.1497-.31783.316-.54696.4989-.6874.1829-.14043.4028-.21065.6597-.21065.3326 0 .6015.12011.8066.36033.2032.23837.3049.54788.3049.92854 0 .24761-.0268.46103-.0804.64027-.0555.1774-.1497.37696-.2827.5987h-.7373c.3437-.41391.5155-.80381.5155-1.16968 0-.18294-.0397-.33076-.1192-.44348-.0794-.11272-.1847-.16908-.3159-.16908-.1793 0-.3253.09794-.438.29381-.0887.16261-.1949.37234-.3187.62919-.1386.30489-.3003.5331-.4851.68462-.1848.14968-.3991.22451-.643.22451-.3253 0-.584-.12103-.7761-.3631-.1941-.24206-.2911-.56174-.2911-.95902zM82.5679 5.21936c0-.37696.0943-.74006.2828-1.0893h.6652c-.2421.40098-.3631.75669-.3631 1.06713 0 .18848.0369.3363.1108.44348.0721.10533.1691.15799.2911.15799.146 0 .2808-.09886.4047-.29658.0369-.05543.1404-.26886.3104-.64027.1497-.31783.316-.54696.4989-.6874s.4028-.21065.6597-.21065c.3326 0 .6015.12011.8066.36033.2032.23837.3049.54788.3049.92853 0 .24761-.0268.46104-.0804.64028-.0555.17739-.1497.37696-.2827.5987h-.7373c.3437-.41392.5155-.80381.5155-1.16968 0-.18294-.0397-.33077-.1192-.44349-.0794-.11271-.1847-.16907-.3159-.16907-.1793 0-.3253.09793-.438.29381-.0887.16261-.1949.37234-.3187.62918-.1386.3049-.3003.53311-.4851.68463-.1848.14967-.3991.22451-.643.22451-.3253 0-.584-.12103-.7761-.3631-.1941-.24207-.2911-.56174-.2911-.95903z" fill="#000"/><path d="M90.877 1.39717l-1.5273 1.27224 1.5273 1.27223v.668h-3.8722v-.74838h2.7191v-.02217L88.3602 2.7193v-.10533l1.3637-1.11979v-.02217h-2.7191V.723633h3.8722v.673537zM90.877 7.96624h-.5849V6.21171h-1.0172V7.8914H88.69V6.21171h-1.1004v1.79333h-.5848v-2.5417h3.8722v2.5029zM90.877 10.3278c0 .4028-.0823.7613-.2467 1.0754-.1645.3141-.3955.5581-.693.7318-.2975.1737-.6319.2605-1.0033.2605-.3789 0-.7152-.0878-1.009-.2633-.2919-.1737-.5183-.4213-.679-.7428-.1608-.3216-.2412-.6902-.2412-1.106V8.70629h3.8722v1.62151zm-3.2874-.0776c0 .4139.1239.7456.3715.995.2494.2513.5756.377.9784.377.4176 0 .7474-.1266.9895-.3797.2421-.2514.3631-.5904.3631-1.0173v-.77053h-2.7025v.79553zM90.877 13.8618h-3.8722v-.7484h3.8722v.7484zM90.877 16.6945l-3.8722 1.7102v-.79l.9424-.4019v-1.7212l-.9424-.3742v-.7844l3.8722 1.5965v.765zm-2.3616-.9757v1.2501l1.5328-.6541-1.5328-.596z" fill="#fff"/></svg>