<svg width="342" height="100" viewBox="0 0 342 100" fill="none" xmlns="http://www.w3.org/2000/svg">
<path fill-rule="evenodd" clip-rule="evenodd" d="M42 57.98H67.32L65.21 79.08L92.64 41.1H67.32L69.43 20L42 57.98Z" fill="#FFC802" stroke="#FFC802" stroke-width="2" stroke-linecap="round" stroke-linejoin="round"/>
<path d="M132.4 41.6C134.08 41.6 135.573 41.96 136.88 42.68C138.213 43.4 139.253 44.4667 140 45.88C140.773 47.2933 141.16 49 141.16 51V64H136.64V51.68C136.64 49.7067 136.147 48.2 135.16 47.16C134.173 46.0933 132.827 45.56 131.12 45.56C129.413 45.56 128.053 46.0933 127.04 47.16C126.053 48.2 125.56 49.7067 125.56 51.68V64H121V34.4H125.56V44.52C126.333 43.5867 127.307 42.8667 128.48 42.36C129.68 41.8533 130.987 41.6 132.4 41.6ZM168.017 41.96L154.497 74.36H149.777L154.257 63.64L145.577 41.96H150.657L156.857 58.76L163.297 41.96H168.017ZM177.218 45.2C177.991 44.1867 179.044 43.3333 180.378 42.64C181.711 41.9467 183.218 41.6 184.898 41.6C186.818 41.6 188.564 42.08 190.138 43.04C191.738 43.9733 192.991 45.2933 193.898 47C194.804 48.7067 195.258 50.6667 195.258 52.88C195.258 55.0933 194.804 57.08 193.898 58.84C192.991 60.5733 191.738 61.9333 190.138 62.92C188.564 63.88 186.818 64.36 184.898 64.36C183.218 64.36 181.724 64.0267 180.418 63.36C179.111 62.6667 178.044 61.8133 177.218 60.8V74.48H172.658V41.96H177.218V45.2ZM190.618 52.88C190.618 51.36 190.298 50.0533 189.658 48.96C189.044 47.84 188.218 47 187.178 46.44C186.164 45.8533 185.071 45.56 183.898 45.56C182.751 45.56 181.658 45.8533 180.618 46.44C179.604 47.0267 178.778 47.88 178.138 49C177.524 50.12 177.218 51.44 177.218 52.96C177.218 54.48 177.524 55.8133 178.138 56.96C178.778 58.08 179.604 58.9333 180.618 59.52C181.658 60.1067 182.751 60.4 183.898 60.4C185.071 60.4 186.164 60.1067 187.178 59.52C188.218 58.9067 189.044 58.0267 189.658 56.88C190.298 55.7333 190.618 54.4 190.618 52.88ZM221.167 52.44C221.167 53.2667 221.114 54.0133 221.007 54.68H204.167C204.301 56.44 204.954 57.8533 206.127 58.92C207.301 59.9867 208.741 60.52 210.447 60.52C212.901 60.52 214.634 59.4933 215.647 57.44H220.567C219.901 59.4667 218.687 61.1333 216.927 62.44C215.194 63.72 213.034 64.36 210.447 64.36C208.341 64.36 206.447 63.8933 204.767 62.96C203.114 62 201.807 60.6667 200.847 58.96C199.914 57.2267 199.447 55.2267 199.447 52.96C199.447 50.6933 199.901 48.7067 200.807 47C201.741 45.2667 203.034 43.9333 204.687 43C206.367 42.0667 208.287 41.6 210.447 41.6C212.527 41.6 214.381 42.0533 216.007 42.96C217.634 43.8667 218.901 45.1467 219.807 46.8C220.714 48.4267 221.167 50.3067 221.167 52.44ZM216.407 51C216.381 49.32 215.781 47.9733 214.607 46.96C213.434 45.9467 211.981 45.44 210.247 45.44C208.674 45.44 207.327 45.9467 206.207 46.96C205.087 47.9467 204.421 49.2933 204.207 51H216.407ZM231.415 45.16C232.081 44.04 232.961 43.1733 234.055 42.56C235.175 41.92 236.495 41.6 238.015 41.6V46.32H236.855C235.068 46.32 233.708 46.7733 232.775 47.68C231.868 48.5867 231.415 50.16 231.415 52.4V64H226.855V41.96H231.415V45.16ZM258.486 41.6C258.193 40.3733 257.66 39.4533 256.886 38.84C256.113 38.2267 255.033 37.92 253.646 37.92C251.54 37.92 249.966 38.7333 248.926 40.36C247.886 41.96 247.34 44.6267 247.286 48.36C247.98 47.1867 248.993 46.28 250.326 45.64C251.66 45 253.1 44.68 254.646 44.68C256.406 44.68 257.953 45.0667 259.286 45.84C260.646 46.5867 261.7 47.68 262.446 49.12C263.22 50.56 263.606 52.28 263.606 54.28C263.606 56.1467 263.233 57.8133 262.486 59.28C261.766 60.7467 260.686 61.9067 259.246 62.76C257.806 63.5867 256.073 64 254.046 64C251.3 64 249.14 63.4 247.566 62.2C246.02 60.9733 244.926 59.2533 244.286 57.04C243.673 54.8267 243.366 52.0667 243.366 48.76C243.366 39 246.806 34.12 253.686 34.12C256.353 34.12 258.446 34.84 259.966 36.28C261.513 37.72 262.42 39.4933 262.686 41.6H258.486ZM253.646 48.52C252.02 48.52 250.633 49.0133 249.486 50C248.366 50.96 247.806 52.36 247.806 54.2C247.806 56.04 248.326 57.5067 249.366 58.6C250.433 59.6667 251.913 60.2 253.806 60.2C255.486 60.2 256.806 59.68 257.766 58.64C258.753 57.6 259.246 56.2133 259.246 54.48C259.246 52.6667 258.766 51.2267 257.806 50.16C256.873 49.0667 255.486 48.52 253.646 48.52ZM269.59 42.04C269.75 39.56 270.697 37.6267 272.43 36.24C274.19 34.8533 276.43 34.16 279.15 34.16C281.017 34.16 282.63 34.4933 283.99 35.16C285.35 35.8267 286.377 36.7333 287.07 37.88C287.764 39.0267 288.11 40.32 288.11 41.76C288.11 43.4133 287.67 44.8267 286.79 46C285.91 47.1733 284.857 47.96 283.63 48.36V48.52C285.204 49 286.43 49.88 287.31 51.16C288.19 52.4133 288.63 54.0267 288.63 56C288.63 57.5733 288.27 58.9733 287.55 60.2C286.83 61.4267 285.764 62.4 284.35 63.12C282.937 63.8133 281.244 64.16 279.27 64.16C276.39 64.16 274.017 63.4267 272.15 61.96C270.31 60.4667 269.324 58.3333 269.19 55.56H273.59C273.697 56.9733 274.244 58.1333 275.23 59.04C276.217 59.92 277.55 60.36 279.23 60.36C280.857 60.36 282.11 59.92 282.99 59.04C283.87 58.1333 284.31 56.9733 284.31 55.56C284.31 53.6933 283.71 52.3733 282.51 51.6C281.337 50.8 279.524 50.4 277.07 50.4H276.03V46.64H277.11C279.27 46.6133 280.91 46.2533 282.03 45.56C283.177 44.8667 283.75 43.7733 283.75 42.28C283.75 41 283.337 39.9867 282.51 39.24C281.684 38.4667 280.51 38.08 278.99 38.08C277.497 38.08 276.337 38.4667 275.51 39.24C274.684 39.9867 274.19 40.92 274.03 42.04H269.59Z" fill="white"/>
</svg>
