<svg viewBox="0 0 1898 171" fill="none" xmlns="http://www.w3.org/2000/svg">
<path d="M588.219 78.1354L588.939 170.781L580.509 170.781L580.816 78.067C580.234 77.9452 579.683 77.7652 579.175 77.5322L580.223 82.0755C581.176 86.2164 579.159 89.7482 575.558 90.9132L576.172 170.781L569.04 170.781L569.305 90.7747C565.9 89.488 563.967 86.0514 564.804 82.0324L570.173 56.1925C571.237 51.0826 573.064 51.0667 574.24 56.1501L576.114 64.273L582.198 35.0224C583.263 29.9125 585.09 29.8967 586.265 34.98L594.123 69.0117C595.182 73.608 592.577 77.4364 588.219 78.1354Z" fill="#1C464D"/>
<path d="M153.234 78.1354L152.514 170.781L160.944 170.781L160.637 78.067C161.219 77.9452 161.77 77.7652 162.278 77.5322L161.23 82.0755C160.277 86.2164 162.294 89.7482 165.895 90.9132L165.281 170.781L172.413 170.781L172.149 90.7747C175.553 89.488 177.486 86.0514 176.649 82.0324L171.28 56.1925C170.216 51.0826 168.389 51.0667 167.213 56.1501L165.339 64.273L159.255 35.0224C158.19 29.9125 156.364 29.8967 155.188 34.98L147.33 69.0117C146.271 73.608 148.876 77.4364 153.234 78.1354Z" fill="#1C464D"/>
<path d="M1157.65 78.1354L1156.93 170.781L1165.36 170.781L1165.05 78.067C1165.64 77.9452 1166.19 77.7652 1166.7 77.5322L1165.65 82.0755C1164.69 86.2164 1166.71 89.7482 1170.31 90.9132L1169.7 170.781L1176.83 170.781L1176.57 90.7747C1179.97 89.488 1181.9 86.0514 1181.07 82.0324L1175.7 56.1925C1174.63 51.0826 1172.81 51.0667 1171.63 56.1501L1169.76 64.273L1163.67 35.0224C1162.61 29.9125 1160.78 29.8967 1159.61 34.98L1151.75 69.0117C1150.69 73.608 1153.29 77.4364 1157.65 78.1354Z" fill="#1C464D"/>
<path d="M1710.04 78.1354L1709.32 170.781L1717.75 170.781L1717.45 78.067C1718.03 77.9452 1718.58 77.7652 1719.09 77.5322L1718.04 82.0755C1717.09 86.2164 1719.1 89.7482 1722.7 90.9132L1722.09 170.781L1729.22 170.781L1728.96 90.7747C1732.36 89.488 1734.29 86.0514 1733.46 82.0324L1728.09 56.1925C1727.02 51.0826 1725.2 51.0667 1724.02 56.1501L1722.15 64.273L1716.06 35.0224C1715 29.9125 1713.17 29.8967 1712 34.98L1704.14 69.0117C1703.08 73.608 1705.68 77.4364 1710.04 78.1354Z" fill="#1C464D"/>
<path d="M779.508 78.1354L778.787 170.781L787.217 170.781L786.91 78.067C787.493 77.9452 788.043 77.7652 788.552 77.5322L787.503 82.0755C786.55 86.2164 788.568 89.7482 792.168 90.9132L791.554 170.781L798.687 170.781L798.422 90.7747C801.827 89.488 803.76 86.0514 802.923 82.0324L797.554 56.1925C796.489 51.0826 794.662 51.0667 793.487 56.1501L791.612 64.273L785.528 35.0224C784.464 29.9125 782.637 29.8967 781.461 34.98L773.603 69.0117C772.544 73.608 775.15 77.4364 779.508 78.1354Z" fill="#1C464D"/>
<path d="M491.973 78.1354L492.693 170.781L484.263 170.781L484.57 78.067C483.988 77.9452 483.437 77.7652 482.929 77.5322L483.977 82.0755C484.93 86.2164 482.913 89.7482 479.312 90.9132L479.926 170.781L472.794 170.781L473.058 90.7747C469.654 89.488 467.721 86.0514 468.558 82.0324L473.927 56.1925C474.991 51.0826 476.818 51.0667 477.994 56.1501L479.868 64.273L485.952 35.0224C487.017 29.9125 488.843 29.8967 490.019 34.98L497.877 69.0117C498.936 73.608 496.331 77.4364 491.973 78.1354Z" fill="#162B2E"/>
<path d="M249.48 78.1354L248.76 170.781L257.19 170.781L256.883 78.067C257.465 77.9452 258.016 77.7652 258.524 77.5322L257.476 82.0755C256.523 86.2164 258.54 89.7482 262.141 90.9132L261.527 170.781L268.659 170.781L268.395 90.7747C271.799 89.488 273.732 86.0514 272.896 82.0324L267.526 56.1925C266.462 51.0826 264.635 51.0667 263.46 56.1501L261.585 64.273L255.501 35.0224C254.436 29.9125 252.61 29.8967 251.434 34.98L243.576 69.0117C242.517 73.608 245.122 77.4364 249.48 78.1354Z" fill="#1C464D"/>
<path d="M1253.9 78.1354L1253.18 170.781L1261.61 170.781L1261.3 78.067C1261.88 77.9452 1262.43 77.7652 1262.94 77.5322L1261.89 82.0755C1260.94 86.2164 1262.96 89.7482 1266.56 90.9132L1265.94 170.781L1273.08 170.781L1272.81 90.7747C1276.22 89.488 1278.15 86.0514 1277.31 82.0324L1271.94 56.1925C1270.88 51.0826 1269.05 51.0667 1267.88 56.1501L1266 64.273L1259.92 35.0224C1258.85 29.9125 1257.03 29.8967 1255.85 34.98L1247.99 69.0117C1246.93 73.608 1249.54 77.4364 1253.9 78.1354Z" fill="#1C464D"/>
<path d="M1806.29 78.1354L1805.57 170.781L1814 170.781L1813.69 78.067C1814.27 77.9452 1814.82 77.7652 1815.33 77.5322L1814.28 82.0755C1813.33 86.2164 1815.35 89.7482 1818.95 90.9132L1818.34 170.781L1825.47 170.781L1825.2 90.7747C1828.61 89.488 1830.54 86.0514 1829.7 82.0324L1824.33 56.1925C1823.27 51.0826 1821.44 51.0667 1820.27 56.1501L1818.39 64.273L1812.31 35.0224C1811.25 29.9125 1809.42 29.8967 1808.24 34.98L1800.38 69.0117C1799.33 73.608 1801.93 77.4364 1806.29 78.1354Z" fill="#1C464D"/>
<path d="M875.754 78.1354L875.033 170.781L883.463 170.781L883.156 78.067C883.739 77.9452 884.289 77.7652 884.798 77.5322L883.749 82.0755C882.796 86.2164 884.814 89.7482 888.414 90.9132L887.8 170.781L894.933 170.781L894.668 90.7747C898.073 89.488 900.006 86.0514 899.169 82.0324L893.8 56.1925C892.735 51.0826 890.909 51.0667 889.733 56.1501L887.858 64.273L881.774 35.0224C880.71 29.9125 878.883 29.8967 877.708 34.98L869.849 69.0117C868.79 73.608 871.396 77.4364 875.754 78.1354Z" fill="#1C464D"/>
<path d="M1428.14 78.1354L1427.42 170.781L1435.85 170.781L1435.55 78.067C1436.13 77.9452 1436.68 77.7652 1437.19 77.5322L1436.14 82.0755C1435.19 86.2164 1437.2 89.7482 1440.81 90.9132L1440.19 170.781L1447.32 170.781L1447.06 90.7747C1450.46 89.488 1452.4 86.0514 1451.56 82.0324L1446.19 56.1925C1445.13 51.0826 1443.3 51.0667 1442.12 56.1501L1440.25 64.273L1434.16 35.0224C1433.1 29.9125 1431.27 29.8967 1430.1 34.98L1422.24 69.0117C1421.18 73.608 1423.79 77.4364 1428.14 78.1354Z" fill="#1C464D"/>
<path d="M317.258 78.1354L316.537 170.781L324.967 170.781L324.66 78.067C325.243 77.9452 325.793 77.7652 326.302 77.5322L325.253 82.0755C324.3 86.2164 326.318 89.7482 329.918 90.9132L329.304 170.781L336.437 170.781L336.172 90.7747C339.577 89.488 341.51 86.0514 340.673 82.0324L335.304 56.1925C334.239 51.0826 332.412 51.0667 331.237 56.1501L329.362 64.273L323.278 35.0224C322.214 29.9125 320.387 29.8967 319.211 34.98L311.353 69.0117C310.294 73.608 312.9 77.4364 317.258 78.1354Z" fill="#1C464D"/>
<path d="M1321.68 78.1354L1320.96 170.781L1329.39 170.781L1329.08 78.067C1329.66 77.9452 1330.22 77.7652 1330.72 77.5322L1329.68 82.0755C1328.72 86.2164 1330.74 89.7482 1334.34 90.9132L1333.73 170.781L1340.86 170.781L1340.59 90.7747C1344 89.488 1345.93 86.0514 1345.09 82.0324L1339.73 56.1925C1338.66 51.0826 1336.83 51.0667 1335.66 56.1501L1333.78 64.273L1327.7 35.0224C1326.64 29.9125 1324.81 29.8967 1323.63 34.98L1315.78 69.0117C1314.72 73.608 1317.32 77.4364 1321.68 78.1354Z" fill="#1C464D"/>
<path d="M1874.07 78.1354L1873.35 170.781L1881.78 170.781L1881.47 78.067C1882.06 77.9452 1882.61 77.7652 1883.11 77.5322L1882.07 82.0755C1881.11 86.2164 1883.13 89.7482 1886.73 90.9132L1886.12 170.781L1893.25 170.781L1892.98 90.7747C1896.39 89.488 1898.32 86.0514 1897.49 82.0324L1892.12 56.1925C1891.05 51.0826 1889.22 51.0667 1888.05 56.1501L1886.17 64.273L1880.09 35.0224C1879.03 29.9125 1877.2 29.8967 1876.02 34.98L1868.17 69.0117C1867.11 73.608 1869.71 77.4364 1874.07 78.1354Z" fill="#1C464D"/>
<path d="M943.531 78.1354L942.811 170.781L951.241 170.781L950.934 78.067C951.516 77.9452 952.067 77.7652 952.575 77.5322L951.527 82.0755C950.574 86.2164 952.591 89.7482 956.192 90.9132L955.578 170.781L962.71 170.781L962.445 90.7747C965.85 89.488 967.783 86.0514 966.946 82.0324L961.577 56.1925C960.513 51.0826 958.686 51.0667 957.51 56.1501L955.636 64.273L949.552 35.0224C948.487 29.9125 946.66 29.8967 945.485 34.98L937.627 69.0117C936.568 73.608 939.173 77.4364 943.531 78.1354Z" fill="#1C464D"/>
<path d="M1495.92 78.1354L1495.2 170.781L1503.63 170.781L1503.32 78.067C1503.91 77.9452 1504.46 77.7652 1504.97 77.5322L1503.92 82.0755C1502.96 86.2164 1504.98 89.7482 1508.58 90.9132L1507.97 170.781L1515.1 170.781L1514.84 90.7747C1518.24 89.488 1520.17 86.0514 1519.34 82.0324L1513.97 56.1925C1512.9 51.0826 1511.08 51.0667 1509.9 56.1501L1508.03 64.273L1501.94 35.0224C1500.88 29.9125 1499.05 29.8967 1497.88 34.98L1490.02 69.0117C1488.96 73.608 1491.56 77.4364 1495.92 78.1354Z" fill="#1C464D"/>
<path d="M432.328 78.1354L433.049 170.781L424.619 170.781L424.926 78.067C424.343 77.9452 423.793 77.7652 423.284 77.5322L424.333 82.0755C425.286 86.2164 423.268 89.7482 419.668 90.9132L420.282 170.781L413.149 170.781L413.414 90.7747C410.009 89.488 408.076 86.0514 408.913 82.0324L414.282 56.1925C415.347 51.0826 417.174 51.0667 418.349 56.1501L420.224 64.273L426.308 35.0224C427.372 29.9125 429.199 29.8967 430.374 34.98L438.233 69.0117C439.292 73.608 436.686 77.4364 432.328 78.1354Z" fill="#162B2E"/>
<path d="M28.5193 67.2897L27.7991 170.78L36.229 170.78L35.9219 67.2213C36.5043 67.0995 37.055 66.9195 37.5634 66.6865L36.5149 71.2298C35.5618 75.3707 37.5793 78.9025 41.18 80.0675L40.5658 170.78L47.6985 170.78L47.4337 79.929C50.8385 78.6423 52.7713 75.2057 51.9346 71.1867L46.5653 45.3468C45.5009 40.2369 43.6741 40.221 42.4986 45.3044L40.6241 53.4273L34.5399 24.1767C33.4755 19.0668 31.6487 19.0509 30.4732 24.1343L22.6151 58.166C21.5561 62.7623 24.1614 66.5907 28.5193 67.2897Z" fill="#1C464D"/>
<path d="M1032.94 67.2897L1032.22 170.78L1040.65 170.78L1040.34 67.2213C1040.92 67.0995 1041.47 66.9195 1041.98 66.6865L1040.93 71.2298C1039.98 75.3707 1042 78.9025 1045.6 80.0675L1044.98 170.78L1052.12 170.78L1051.85 79.929C1055.26 78.6423 1057.19 75.2057 1056.35 71.1867L1050.98 45.3468C1049.92 40.2369 1048.09 40.221 1046.92 45.3044L1045.04 53.4273L1038.96 24.1767C1037.89 19.0668 1036.07 19.0509 1034.89 24.1343L1027.03 58.166C1025.97 62.7623 1028.58 66.5907 1032.94 67.2897Z" fill="#1C464D"/>
<path d="M1585.33 67.2897L1584.61 170.78L1593.04 170.78L1592.73 67.2213C1593.31 67.0995 1593.86 66.9195 1594.37 66.6865L1593.32 71.2298C1592.37 75.3707 1594.39 78.9025 1597.99 80.0675L1597.37 170.78L1604.51 170.78L1604.24 79.929C1607.65 78.6423 1609.58 75.2057 1608.74 71.1867L1603.37 45.3468C1602.31 40.2369 1600.48 40.221 1599.31 45.3044L1597.43 53.4273L1591.35 24.1767C1590.28 19.0668 1588.46 19.0509 1587.28 24.1343L1579.42 58.166C1578.36 62.7623 1580.97 66.5907 1585.33 67.2897Z" fill="#1C464D"/>
<path d="M654.797 67.2897L654.076 170.78L662.506 170.78L662.199 67.2213C662.782 67.0995 663.332 66.9195 663.841 66.6865L662.792 71.2298C661.839 75.3707 663.857 78.9025 667.457 80.0675L666.843 170.78L673.976 170.78L673.711 79.929C677.116 78.6423 679.049 75.2057 678.212 71.1867L672.843 45.3468C671.778 40.2369 669.951 40.221 668.776 45.3044L666.901 53.4273L660.817 24.1767C659.753 19.0668 657.926 19.0509 656.751 24.1343L648.892 58.166C647.833 62.7623 650.439 66.5907 654.797 67.2897Z" fill="#162B2E"/>
<path d="M86.6565 67.2897L87.3767 170.78L78.9467 170.78L79.2539 67.2213C78.6714 67.0995 78.1207 66.9195 77.6124 66.6865L78.6608 71.2298C79.614 75.3707 77.5965 78.9025 73.9958 80.0675L74.61 170.78L67.4773 170.78L67.7421 79.929C64.3373 78.6423 62.4045 75.2057 63.2412 71.1867L68.6105 45.3468C69.6748 40.2369 71.5016 40.221 72.6772 45.3044L74.5517 53.4273L80.6359 24.1767C81.7003 19.0668 83.5271 19.0509 84.7026 24.1343L92.5607 58.166C93.6197 62.7623 91.0144 66.5907 86.6565 67.2897Z" fill="#1C464D"/>
<path d="M1091.08 67.2897L1091.8 170.78L1083.37 170.78L1083.68 67.2213C1083.09 67.0995 1082.54 66.9195 1082.03 66.6865L1083.08 71.2298C1084.04 75.3707 1082.02 78.9025 1078.42 80.0675L1079.03 170.78L1071.9 170.78L1072.16 79.929C1068.76 78.6423 1066.83 75.2057 1067.66 71.1867L1073.03 45.3468C1074.1 40.2369 1075.92 40.221 1077.1 45.3044L1078.97 53.4273L1085.06 24.1767C1086.12 19.0668 1087.95 19.0509 1089.12 24.1343L1096.98 58.166C1098.04 62.7623 1095.44 66.5907 1091.08 67.2897Z" fill="#1C464D"/>
<path d="M1643.47 67.2897L1644.19 170.78L1635.76 170.78L1636.07 67.2213C1635.48 67.0995 1634.93 66.9195 1634.42 66.6865L1635.47 71.2298C1636.43 75.3707 1634.41 78.9025 1630.81 80.0675L1631.42 170.78L1624.29 170.78L1624.55 79.929C1621.15 78.6423 1619.22 75.2057 1620.05 71.1867L1625.42 45.3468C1626.49 40.2369 1628.31 40.221 1629.49 45.3044L1631.36 53.4273L1637.45 24.1767C1638.51 19.0668 1640.34 19.0509 1641.52 24.1343L1649.37 58.166C1650.43 62.7623 1647.83 66.5907 1643.47 67.2897Z" fill="#1C464D"/>
<path d="M712.93 67.2897L713.65 170.78L705.22 170.78L705.527 67.2213C704.945 67.0995 704.394 66.9195 703.886 66.6865L704.934 71.2298C705.887 75.3707 703.87 78.9025 700.269 80.0675L700.883 170.78L693.751 170.78L694.016 79.929C690.611 78.6423 688.678 75.2057 689.515 71.1867L694.884 45.3468C695.948 40.2369 697.775 40.221 698.951 45.3044L700.825 53.4273L706.909 24.1767C707.974 19.0668 709.8 19.0509 710.976 24.1343L718.834 58.166C719.893 62.7623 717.288 66.5907 712.93 67.2897Z" fill="#1C464D"/>
<path d="M994.779 77.5742L995.42 170.781L987.36 170.78L987.63 77.452C984.157 76.2342 982.266 72.7711 983.267 68.7096L988.573 47.217C989.828 42.1495 991.978 42.1178 993.36 47.1535L999.29 68.7735C1000.44 72.9514 998.464 76.4887 994.779 77.5742Z" fill="#1C464D"/>
<path d="M1547.17 77.5742L1547.81 170.781L1539.75 170.78L1540.02 77.452C1536.55 76.2342 1534.66 72.7711 1535.66 68.7096L1540.96 47.217C1542.22 42.1495 1544.37 42.1178 1545.75 47.1535L1551.68 68.7735C1552.83 72.9514 1550.85 76.4887 1547.17 77.5742Z" fill="#1C464D"/>
<path d="M616.634 77.5742L617.275 170.781L609.216 170.78L609.486 77.452C606.012 76.2342 604.122 72.7711 605.123 68.7096L610.428 47.217C611.683 42.1495 613.833 42.1178 615.215 47.1535L621.146 68.7735C622.295 72.9514 620.32 76.4887 616.634 77.5742Z" fill="#1C464D"/>
<path d="M124.819 77.5742L124.178 170.781L132.237 170.78L131.967 77.452C135.441 76.2342 137.331 72.7711 136.331 68.7096L131.025 47.217C129.77 42.1495 127.62 42.1178 126.238 47.1535L120.307 68.7735C119.158 72.9514 121.133 76.4887 124.819 77.5742Z" fill="#1C464D"/>
<path d="M1129.24 77.5742L1128.6 170.781L1136.66 170.78L1136.39 77.452C1139.86 76.2342 1141.75 72.7711 1140.75 68.7096L1135.44 47.217C1134.19 42.1495 1132.04 42.1178 1130.66 47.1535L1124.73 68.7735C1123.58 72.9514 1125.55 76.4887 1129.24 77.5742Z" fill="#1C464D"/>
<path d="M1681.63 77.5742L1680.99 170.781L1689.05 170.78L1688.78 77.452C1692.25 76.2342 1694.14 72.7711 1693.14 68.7096L1687.83 47.217C1686.58 42.1495 1684.43 42.1178 1683.05 47.1535L1677.12 68.7735C1675.97 72.9514 1677.94 76.4887 1681.63 77.5742Z" fill="#1C464D"/>
<path d="M751.092 77.5742L750.452 170.781L758.511 170.78L758.241 77.452C761.714 76.2342 763.605 72.7711 762.604 68.7096L757.298 47.217C756.043 42.1495 753.893 42.1178 752.511 47.1535L746.581 68.7735C745.432 72.9514 747.407 76.4887 751.092 77.5742Z" fill="#1C464D"/>
<path d="M520.388 77.5742L521.029 170.781L512.97 170.78L513.24 77.452C509.766 76.2342 507.876 72.7711 508.876 68.7096L514.182 47.217C515.437 42.1495 517.587 42.1178 518.969 47.1535L524.9 68.7735C526.049 72.9514 524.074 76.4887 520.388 77.5742Z" fill="#1C464D"/>
<path d="M465.414 108.308L465.844 170.78L460.442 170.78L460.623 108.227C458.295 107.41 457.028 105.089 457.699 102.367L461.255 87.9616C462.096 84.5651 463.537 84.5438 464.463 87.919L468.438 102.41C469.208 105.21 467.885 107.581 465.414 108.308Z" fill="#1C464D"/>
<path d="M506.082 108.308L506.512 170.78L501.11 170.78L501.291 108.227C498.963 107.41 497.696 105.089 498.366 102.367L501.923 87.9616C502.764 84.5651 504.205 84.5438 505.131 87.919L509.106 102.41C509.876 105.21 508.552 107.581 506.082 108.308Z" fill="#1C464D"/>
<path d="M538.613 108.308L539.043 170.78L533.641 170.78L533.822 108.227C531.494 107.41 530.227 105.089 530.898 102.367L534.454 87.9616C535.295 84.5651 536.736 84.5438 537.662 87.919L541.637 102.41C542.408 105.21 541.084 107.581 538.613 108.308Z" fill="#1C464D"/>
<path d="M210.567 119.153L210.996 170.78L205.594 170.78L205.775 119.071C203.447 118.255 202.18 115.934 202.851 113.212L206.407 98.8063C207.248 95.4098 208.689 95.3886 209.615 98.7637L213.59 113.255C214.361 116.055 213.037 118.426 210.567 119.153Z" fill="#1C464D"/>
<path d="M1214.99 119.153L1215.42 170.78L1210.02 170.78L1210.2 119.071C1207.87 118.255 1206.6 115.934 1207.27 113.212L1210.83 98.8063C1211.67 95.4098 1213.11 95.3886 1214.04 98.7637L1218.01 113.255C1218.78 116.055 1217.46 118.426 1214.99 119.153Z" fill="#1C464D"/>
<path d="M1767.38 119.153L1767.81 170.78L1762.41 170.78L1762.59 119.071C1760.26 118.255 1758.99 115.934 1759.66 113.212L1763.22 98.8063C1764.06 95.4098 1765.5 95.3886 1766.43 98.7637L1770.4 113.255C1771.17 116.055 1769.85 118.426 1767.38 119.153Z" fill="#1C464D"/>
<path d="M836.84 119.153L837.27 170.78L831.868 170.78L832.049 119.071C829.721 118.255 828.454 115.934 829.124 113.212L832.681 98.8063C833.522 95.4098 834.963 95.3886 835.889 98.7637L839.864 113.255C840.634 116.055 839.31 118.426 836.84 119.153Z" fill="#1C464D"/>
<path d="M1389.23 119.153L1389.66 170.78L1384.26 170.78L1384.44 119.071C1382.11 118.255 1380.84 115.934 1381.51 113.212L1385.07 98.8063C1385.91 95.4098 1387.35 95.3886 1388.28 98.7637L1392.25 113.255C1393.02 116.055 1391.7 118.426 1389.23 119.153Z" fill="#1C464D"/>
<path d="M221.065 77.5742L220.424 170.781L228.483 170.78L228.213 77.452C231.687 76.2342 233.578 72.7711 232.577 68.7096L227.271 47.217C226.016 42.1495 223.866 42.1178 222.484 47.1535L216.553 68.7735C215.404 72.9514 217.379 76.4887 221.065 77.5742Z" fill="#1C464D"/>
<path d="M1225.49 77.5742L1224.85 170.781L1232.91 170.78L1232.64 77.452C1236.11 76.2342 1238 72.7711 1237 68.7096L1231.69 47.217C1230.44 42.1495 1228.29 42.1178 1226.91 47.1535L1220.98 68.7735C1219.83 72.9514 1221.8 76.4887 1225.49 77.5742Z" fill="#1C464D"/>
<path d="M1777.88 77.5742L1777.24 170.781L1785.3 170.78L1785.03 77.452C1788.5 76.2342 1790.39 72.7711 1789.39 68.7096L1784.08 47.217C1782.83 42.1495 1780.68 42.1178 1779.3 47.1535L1773.37 68.7735C1772.22 72.9514 1774.19 76.4887 1777.88 77.5742Z" fill="#1C464D"/>
<path d="M847.338 77.5742L846.698 170.781L854.757 170.78L854.487 77.452C857.961 76.2342 859.851 72.7711 858.85 68.7096L853.544 47.217C852.289 42.1495 850.14 42.1178 848.758 47.1535L842.827 68.7735C841.678 72.9514 843.653 76.4887 847.338 77.5742Z" fill="#1C464D"/>
<path d="M1399.73 77.5742L1399.09 170.781L1407.15 170.78L1406.88 77.452C1410.35 76.2342 1412.24 72.7711 1411.24 68.7096L1405.93 47.217C1404.68 42.1495 1402.53 42.1178 1401.15 47.1535L1395.22 68.7735C1394.07 72.9514 1396.04 76.4887 1399.73 77.5742Z" fill="#1C464D"/>
<path d="M349.846 77.5742L349.205 170.781L357.265 170.78L356.995 77.452C360.468 76.2342 362.359 72.7711 361.358 68.7096L356.052 47.217C354.797 42.1495 352.647 42.1178 351.265 47.1535L345.335 68.7735C344.186 72.9514 346.161 76.4887 349.846 77.5742Z" fill="#1C464D"/>
<path d="M391.866 77.5742L391.225 170.781L399.284 170.78L399.014 77.452C402.488 76.2342 404.378 72.7711 403.377 68.7096L398.072 47.217C396.817 42.1495 394.667 42.1178 393.285 47.1535L387.354 68.7735C386.205 72.9514 388.18 76.4887 391.866 77.5742Z" fill="#162B2E"/>
<path d="M371.315 42.2262L370.523 170.78L383.902 170.78L383.568 42.0753C387.86 40.5707 390.196 36.2921 388.959 31.2742L382.404 4.72026C380.853 -1.5406 374.776 -1.57979 373.068 4.64175L365.741 31.3531C364.321 36.5149 366.761 40.8851 371.315 42.2262Z" fill="#162B2E"/>
<path d="M288.846 77.5742L288.205 170.781L296.265 170.78L295.995 77.452C299.468 76.2342 301.359 72.7711 300.358 68.7096L295.052 47.217C293.797 42.1495 291.647 42.1178 290.265 47.1535L284.335 68.7735C283.186 72.9514 285.161 76.4887 288.846 77.5742Z" fill="#1C464D"/>
<path d="M1293.26 77.5742L1292.62 170.781L1300.68 170.78L1300.41 77.452C1303.89 76.2342 1305.78 72.7711 1304.78 68.7096L1299.47 47.217C1298.22 42.1495 1296.07 42.1178 1294.68 47.1535L1288.75 68.7735C1287.6 72.9514 1289.58 76.4887 1293.26 77.5742Z" fill="#1C464D"/>
<path d="M1845.65 77.5742L1845.01 170.781L1853.07 170.78L1852.8 77.452C1856.28 76.2342 1858.17 72.7711 1857.17 68.7096L1851.86 47.217C1850.61 42.1495 1848.46 42.1178 1847.07 47.1535L1841.14 68.7735C1839.99 72.9514 1841.97 76.4887 1845.65 77.5742Z" fill="#1C464D"/>
<path d="M915.12 77.5742L914.479 170.781L922.538 170.78L922.268 77.452C925.742 76.2342 927.632 72.7711 926.631 68.7096L921.326 47.217C920.071 42.1495 917.921 42.1178 916.539 47.1535L910.608 68.7735C909.459 72.9514 911.434 76.4887 915.12 77.5742Z" fill="#1C464D"/>
<path d="M1467.51 77.5742L1466.87 170.781L1474.93 170.78L1474.66 77.452C1478.13 76.2342 1480.02 72.7711 1479.02 68.7096L1473.72 47.217C1472.46 42.1495 1470.31 42.1178 1468.93 47.1535L1463 68.7735C1461.85 72.9514 1463.82 76.4887 1467.51 77.5742Z" fill="#1C464D"/>
<path d="M554.279 77.5742L554.92 170.781L546.86 170.78L547.13 77.452C543.657 76.2342 541.766 72.7711 542.767 68.7096L548.073 47.217C549.328 42.1495 551.478 42.1178 552.86 47.1535L558.79 68.7735C559.939 72.9514 557.964 76.4887 554.279 77.5742Z" fill="#162B2E"/>
<path d="M187.174 77.5742L186.534 170.781L194.593 170.78L194.323 77.452C197.797 76.2342 199.687 72.7711 198.686 68.7096L193.38 47.217C192.125 42.1495 189.975 42.1178 188.593 47.1535L182.663 68.7735C181.514 72.9514 183.489 76.4887 187.174 77.5742Z" fill="#1C464D"/>
<path d="M1191.6 77.5742L1190.96 170.781L1199.01 170.78L1198.74 77.452C1202.22 76.2342 1204.11 72.7711 1203.11 68.7096L1197.8 47.217C1196.55 42.1495 1194.4 42.1178 1193.02 47.1535L1187.08 68.7735C1185.94 72.9514 1187.91 76.4887 1191.6 77.5742Z" fill="#1C464D"/>
<path d="M1743.99 77.5742L1743.35 170.781L1751.41 170.78L1751.14 77.452C1754.61 76.2342 1756.5 72.7711 1755.5 68.7096L1750.19 47.217C1748.94 42.1495 1746.79 42.1178 1745.41 47.1535L1739.48 68.7735C1738.33 72.9514 1740.3 76.4887 1743.99 77.5742Z" fill="#1C464D"/>
<path d="M813.448 77.5742L812.807 170.781L820.866 170.78L820.596 77.452C824.07 76.2342 825.96 72.7711 824.96 68.7096L819.654 47.217C818.399 42.1495 816.249 42.1178 814.867 47.1535L808.936 68.7735C807.787 72.9514 809.762 76.4887 813.448 77.5742Z" fill="#1C464D"/>
<path d="M1365.84 77.5742L1365.2 170.781L1373.26 170.78L1372.99 77.452C1376.46 76.2342 1378.35 72.7711 1377.35 68.7096L1372.04 47.217C1370.79 42.1495 1368.64 42.1178 1367.26 47.1535L1361.33 68.7735C1360.18 72.9514 1362.15 76.4887 1365.84 77.5742Z" fill="#1C464D"/>
<path d="M12.0483 55.8847L12.6891 170.78L4.62981 170.78L4.89987 55.7625C1.42615 54.5447 -0.464225 51.0816 0.536567 47.0202L5.84238 25.5276C7.09724 20.4601 9.24718 20.4284 10.6292 25.464L16.5598 47.0841C17.7089 51.2619 15.7339 54.7992 12.0483 55.8847Z" fill="#1C464D"/>
<path d="M1016.47 55.8847L1017.11 170.78L1009.05 170.78L1009.32 55.7625C1005.84 54.5447 1003.95 51.0816 1004.95 47.0202L1010.26 25.5276C1011.52 20.4601 1013.67 20.4284 1015.05 25.464L1020.98 47.0841C1022.13 51.2619 1020.15 54.7992 1016.47 55.8847Z" fill="#1C464D"/>
<path d="M1568.86 55.8847L1569.5 170.78L1561.44 170.78L1561.71 55.7625C1558.23 54.5447 1556.34 51.0816 1557.35 47.0202L1562.65 25.5276C1563.91 20.4601 1566.06 20.4284 1567.44 25.464L1573.37 47.0841C1574.52 51.2619 1572.54 54.7992 1568.86 55.8847Z" fill="#1C464D"/>
<path d="M638.322 55.8847L638.963 170.78L630.903 170.78L631.173 55.7625C627.7 54.5447 625.809 51.0816 626.81 47.0202L632.116 25.5276C633.371 20.4601 635.521 20.4284 636.903 25.464L642.833 47.0841C643.982 51.2619 642.007 54.7992 638.322 55.8847Z" fill="#162B2E"/>
<path d="M103.131 55.8847L102.491 170.78L110.55 170.78L110.28 55.7625C113.754 54.5447 115.644 51.0816 114.643 47.0202L109.337 25.5276C108.082 20.4601 105.933 20.4284 104.551 25.464L98.6199 47.0841C97.4708 51.2619 99.4458 54.7992 103.131 55.8847Z" fill="#1C464D"/>
<path d="M1107.55 55.8847L1106.91 170.78L1114.97 170.78L1114.7 55.7625C1118.17 54.5447 1120.06 51.0816 1119.06 47.0202L1113.76 25.5276C1112.5 20.4601 1110.35 20.4284 1108.97 25.464L1103.04 47.0841C1101.89 51.2619 1103.86 54.7992 1107.55 55.8847Z" fill="#1C464D"/>
<path d="M1659.94 55.8847L1659.3 170.78L1667.36 170.78L1667.09 55.7625C1670.56 54.5447 1672.45 51.0816 1671.45 47.0202L1666.15 25.5276C1664.89 20.4601 1662.74 20.4284 1661.36 25.464L1655.43 47.0841C1654.28 51.2619 1656.25 54.7992 1659.94 55.8847Z" fill="#1C464D"/>
<path d="M729.405 55.8847L728.764 170.78L736.823 170.78L736.553 55.7625C740.027 54.5447 741.917 51.0816 740.917 47.0202L735.611 25.5276C734.356 20.4601 732.206 20.4284 730.824 25.464L724.893 47.0841C723.744 51.2619 725.719 54.7992 729.405 55.8847Z" fill="#1C464D"/>
</svg>
