<svg width="135" height="135" viewBox="0 0 135 135" fill="none" xmlns="http://www.w3.org/2000/svg">
<circle cx="67.5" cy="67.5" r="67.5" fill="#FF3E00"/>
<circle cx="67.5002" cy="68.1083" r="48.7505" fill="white" stroke="black" stroke-width="1.0125"/>
<path d="M116.757 91.5996L123.732 90.4404L127.137 91.7261L127.76 90.0772L124.355 88.7915L119.887 83.3107L119.182 85.178L122.376 88.9353L122.342 89.0244L117.462 89.7324L116.757 91.5996Z" fill="white"/>
<path d="M105.685 108.061L107.795 105.908L113.705 111.699L114.932 110.446L109.022 104.655L111.132 102.502L110.074 101.465L104.626 107.024L105.685 108.061Z" fill="white"/>
<path d="M90.6068 126.501L96.379 123.776L95.7465 122.436L91.5724 124.407L90.4355 121.999L94.2779 120.185L93.6454 118.845L89.803 120.659L88.6723 118.264L92.8118 116.31L92.1793 114.97L86.4417 117.679L90.6068 126.501Z" fill="white"/>
<path d="M68.6591 121.622H66.8918V131.377H68.6591V121.622Z" fill="white"/>
<path d="M50.1907 122.518C50.9148 120.453 50.0071 118.573 48.0838 117.584C45.8174 116.418 43.2606 117.193 41.8187 119.997C40.3789 122.797 41.2133 125.321 43.5009 126.497C45.564 127.558 47.6185 126.927 48.7117 125.395L47.1316 124.572C46.4097 125.486 45.2854 125.631 44.2474 125.097C42.841 124.374 42.3751 122.801 43.3988 120.81C44.4051 118.852 45.9647 118.278 47.3839 119.007C48.4388 119.55 48.9577 120.572 48.6063 121.703L50.1907 122.518Z" fill="white"/>
<path d="M28.1493 111.759C30.7114 109.921 31.0988 107.274 29.6075 105.196C28.1133 103.113 25.4848 102.637 22.9227 104.475C20.3644 106.311 19.9704 108.957 21.4645 111.039C22.9558 113.117 25.5872 113.598 28.1493 111.759ZM27.1134 110.315C25.3099 111.61 23.6809 111.407 22.7533 110.114C21.8285 108.825 22.155 107.213 23.9585 105.919C25.7621 104.625 27.3939 104.832 28.3187 106.12C29.2463 107.413 28.917 109.021 27.1134 110.315Z" fill="white"/>
<path d="M15.29 89.5537L15.808 91.1735C17.3677 90.6397 18.0513 88.9458 17.4187 86.9675C16.7948 85.0165 15.2282 83.9021 13.5871 84.4319C12.2532 84.8585 11.7897 86.052 11.8839 87.7072L11.9497 88.8515C12.0163 89.9354 11.915 90.698 11.1951 90.9332C10.3996 91.1826 9.62791 90.5992 9.27679 89.5012C8.94018 88.4485 9.15088 87.4809 10.1046 87.1009L9.57503 85.4449C7.75015 86.1034 7.15076 87.8105 7.84285 89.9747C8.55525 92.2025 10.0804 93.1401 11.7198 92.6209C13.329 92.1013 13.6389 90.5368 13.5233 89.0334L13.4625 88.0926C13.4002 87.2724 13.4583 86.3436 14.237 86.1045C14.9372 85.8856 15.6502 86.3478 15.9868 87.4004C16.3074 88.4032 16.0519 89.215 15.29 89.5537Z" fill="white"/>
<path d="M112.807 38.6484L115.814 44.2793L117.121 43.5816L114.947 39.5097L117.296 38.2556L119.297 42.0039L120.604 41.3062L118.602 37.5578L120.939 36.3104L123.095 40.3487L124.402 39.651L121.413 34.0537L112.807 38.6484Z" fill="white"/>
<path d="M101.776 15.7468L104.204 17.5344L99.2984 24.1978L100.71 25.237L105.616 18.5737L108.044 20.3613L108.922 19.1683L102.654 14.5537L101.776 15.7468Z" fill="white"/>
<path d="M75.1841 14.6869L81.1746 15.628L81.4045 14.1645L77.1599 13.4976L78.4441 5.32361L76.6982 5.04932L75.1841 14.6869Z" fill="white"/>
<path d="M50.9998 16.5721L57.1372 14.8181L56.7302 13.3937L52.292 14.6621L51.5603 12.1017L55.6458 10.9342L55.2387 9.50973L51.1532 10.6773L50.4254 8.13072L54.827 6.87283L54.4199 5.44839L48.3191 7.19189L50.9998 16.5721Z" fill="white"/>
<path d="M26.3811 19.3258L24.9329 20.6147L33.9844 25.6188L35.6141 24.1683L31.6972 14.5943L30.2454 15.8864L33.4576 23.3073L33.3829 23.3738L26.3811 19.3258Z" fill="white"/>
<path d="M14.5407 36.4811L15.2974 34.9581C13.8065 34.2546 12.1361 34.9937 11.2119 36.8536C10.3004 38.688 10.6481 40.5789 12.1945 41.3419C13.4487 41.9651 14.6127 41.4318 15.6981 40.1786L16.448 39.3118C17.1553 38.4877 17.7592 38.0111 18.4396 38.3439C19.184 38.7191 19.3312 39.6753 18.8183 40.7076C18.3265 41.6973 17.5013 42.2447 16.5523 41.853L15.7786 43.4101C17.5467 44.2088 19.1658 43.4016 20.1769 41.3668C21.2177 39.2722 20.7767 37.5371 19.2388 36.7676C17.7222 36.0194 16.4101 36.9259 15.4458 38.0851L14.8341 38.8024C14.3073 39.4343 13.6186 40.0602 12.8934 39.6892C12.2386 39.3585 12.049 38.5303 12.5408 37.5406C13.0093 36.5978 13.7581 36.1933 14.5407 36.4811Z" fill="white"/>
<circle cx="8.81763" cy="63.7576" r="1.52027" fill="white"/>
<circle cx="125.574" cy="63.7576" r="1.52027" fill="white"/>
<path d="M92.8086 40.8613C85.9504 30.9688 72.4056 28.0369 62.6129 34.3261L45.4148 45.3754C43.0936 46.8452 41.1019 48.7868 39.5668 51.0762C38.0317 53.3656 36.9869 55.9525 36.4992 58.6718C35.6768 63.2615 36.3961 67.9967 38.5434 72.1278C37.0718 74.3786 36.0689 76.9073 35.5958 79.5605C35.1046 82.3399 35.1695 85.1903 35.7866 87.9441C36.4038 90.6979 37.5609 93.2995 39.1897 95.596C46.0478 105.488 59.5927 108.42 69.3854 102.131L86.5835 91.1284C88.902 89.6555 90.8917 87.713 92.4265 85.4242C93.9612 83.1353 95.0075 80.5499 95.4991 77.832C96.3185 73.2437 95.5968 68.5109 93.4483 64.3826C94.9192 62.1308 95.924 59.6027 96.4025 56.95C96.8922 54.1705 96.8266 51.3204 96.2095 48.5669C95.5923 45.8133 94.4361 43.2117 92.8086 40.9145" fill="#FF3E00"/>
<path d="M61.2487 96.1314C58.5281 96.8296 55.6565 96.6856 53.0213 95.7188C50.3861 94.7521 48.1143 93.0091 46.5123 90.7252C45.5287 89.3643 44.8303 87.8226 44.4582 86.1908C44.0861 84.5589 44.0478 82.87 44.3456 81.2233C44.4433 80.6877 44.5806 80.1598 44.7564 79.644L45.0811 78.6611L45.969 79.3164C48.0098 80.7899 50.2883 81.911 52.7077 82.6322L53.3703 82.8222L53.3106 83.4775C53.2469 84.376 53.5023 85.2684 54.0329 86.0004C54.5163 86.6875 55.2009 87.2116 55.9947 87.5022C56.7884 87.7927 57.6531 87.8358 58.4724 87.6256C58.847 87.526 59.2043 87.3714 59.5325 87.1669L76.7868 76.2758C77.2106 76.0121 77.5739 75.6637 77.8535 75.2529C78.1331 74.8421 78.3227 74.378 78.4102 73.8905C78.4985 73.3936 78.4854 72.8842 78.3716 72.3924C78.2578 71.9006 78.0457 71.4363 77.7476 71.0268C77.2642 70.3398 76.5796 69.8157 75.7858 69.5251C74.9921 69.2346 74.1274 69.1915 73.3081 69.4017C72.9331 69.5 72.5755 69.6547 72.248 69.8604L65.6219 74.0216C64.5382 74.7011 63.3563 75.2138 62.1167 75.5419C59.4007 76.2358 56.5348 76.0904 53.9049 75.125C51.275 74.1596 49.0073 72.4207 47.4068 70.1422C46.4262 68.78 45.7305 67.2378 45.3607 65.6061C44.9909 63.9745 44.9544 62.2862 45.2533 60.6404C45.5459 59.0249 46.1762 57.4876 47.1038 56.1268C48.0314 54.766 49.2359 53.6116 50.6403 52.7374L67.9476 41.8464C69.025 41.1681 70.2001 40.6555 71.433 40.3261C74.1525 39.6274 77.0234 39.7712 79.6576 40.7381C82.2918 41.7049 84.5625 43.4482 86.1627 45.7323C87.1475 47.0927 87.8471 48.6342 88.2203 50.266C88.5936 51.8978 88.6329 53.587 88.3361 55.2341C88.2327 55.7728 88.0955 56.3047 87.9253 56.8265L87.594 57.8095L86.7127 57.1542C84.6676 55.6694 82.3822 54.5393 79.9541 53.8121L79.2915 53.6221L79.3511 52.9668C79.4276 52.0639 79.1789 51.1633 78.6488 50.4242C78.1623 49.749 77.4796 49.2362 76.6913 48.9541C75.903 48.672 75.0465 48.6339 74.2358 48.845C73.8607 48.9433 73.5032 49.098 73.1756 49.3037L55.8882 60.1751C55.466 60.439 55.1037 60.7867 54.8243 61.1961C54.5448 61.6055 54.3543 62.0679 54.2648 62.5538C54.1782 63.0518 54.1921 63.5618 54.3059 64.0545C54.4196 64.5471 54.6308 65.0126 54.9274 65.424C55.4086 66.1049 56.0877 66.6249 56.8747 66.9152C57.6617 67.2054 58.5193 67.2522 59.3337 67.0492C59.7079 66.9482 60.065 66.7937 60.3939 66.5905L67.02 62.4359C68.1029 61.7489 69.2878 61.2337 70.5318 60.909C73.2507 60.2088 76.1214 60.3511 78.7558 61.3168C81.3902 62.2825 83.6611 64.025 85.2616 66.3087C86.2457 67.6694 86.9449 69.2109 87.3181 70.8427C87.6913 72.4744 87.731 74.1634 87.4349 75.8105C87.1423 77.426 86.5121 78.9632 85.5845 80.3241C84.6569 81.6849 83.4524 82.8393 82.0479 83.7135L64.7605 94.6045C63.6748 95.2863 62.4907 95.8011 61.2487 96.1314Z" fill="white"/>
<g filter="url(#filter0_d)">
<path d="M52.4245 31.1968C53.7449 30.85 56.3408 31.2269 58.3132 32.1204L57.6261 36.0867C57.6261 36.0867 54.4552 34.898 53.3615 33.4209C53.0516 33.0023 53.7649 32.1497 53.7649 32.1497C53.7649 32.1497 52.6846 32.1871 52.5762 33.118C52.4677 34.0488 53.0481 34.9147 57.703 36.5152C62.3579 38.1158 61.9862 40.1519 65.8251 42.703C69.9095 45.4172 73.1405 46.9241 77.8641 49.2226C82.5877 51.5211 89.0458 52.2938 92.0136 52.0845C94.8928 51.8815 97.3012 51.1853 98.8477 50.7254L100.394 44.0373L101.104 44.1626L101.355 42.7414C105.619 43.4934 109.256 47.7984 108.378 52.7727C106.983 60.684 97.7567 60.931 91.3613 59.9376C75.7278 57.1803 48.2556 40.5374 49.4177 33.9475C49.8564 31.4603 51.104 31.5436 52.4245 31.1968Z" fill="black"/>
</g>
<path d="M58.0498 36.9354L59.2405 30.1846L99.6205 44.2672L100.331 44.3926C100.808 48.4738 98.7851 51.0807 98.7851 51.0807C92.4109 53.9864 81.8672 51.4519 77.8015 49.5779C70.7691 46.3365 62.4601 41.0104 58.0498 36.9354Z" fill="#FF3E00"/>
<path d="M61.2044 23.2036C59.1358 28.7004 58.9271 31.9609 58.9271 31.9609C61.3309 34.9493 73.088 43.251 84.071 45.1881C91.5324 46.5041 96.214 46.9634 100.268 44.7476L100.707 42.2605L102.211 33.7332C103.84 24.4953 91.864 17.6204 87.2451 16.8057C84.7788 16.2486 80.8496 15.6777 78.0072 15.1764C68.4139 13.4844 63.273 17.7067 61.2044 23.2036Z" fill="black"/>
<path d="M102.131 55.1944C107.88 53.6845 108.447 49.6096 107.771 47.9028C109.172 50.348 107.985 54.7157 101.651 56.3792C97.4394 57.4852 88.493 57.0118 71.4261 46.2552C83.5613 53.0138 93.8781 57.3619 102.131 55.1944Z" fill="white"/>
<defs>
<filter id="filter0_d" x="44.8875" y="30.2974" width="66.9259" height="35.0349" filterUnits="userSpaceOnUse" color-interpolation-filters="sRGB">
<feFlood flood-opacity="0" result="BackgroundImageFix"/>
<feColorMatrix in="SourceAlpha" type="matrix" values="0 0 0 0 0 0 0 0 0 0 0 0 0 0 0 0 0 0 127 0"/>
<feOffset dy="1.35"/>
<feGaussianBlur stdDeviation="0.675"/>
<feColorMatrix type="matrix" values="0 0 0 0 0 0 0 0 0 0 0 0 0 0 0 0 0 0 0.25 0"/>
<feBlend mode="normal" in2="BackgroundImageFix" result="effect1_dropShadow"/>
<feBlend mode="normal" in="SourceGraphic" in2="effect1_dropShadow" result="shape"/>
</filter>
</defs>
</svg>
