<svg width="135" height="135" fill="none" xmlns="http://www.w3.org/2000/svg"><circle cx="67.5" cy="67.5" r="67.5" fill="#FF3E00"/><circle cx="67.5" cy="68.1" r="48.8" fill="#fff" stroke="#000"/><path d="M116.8 91.6l7-1.2 3.3 1.3.7-1.6-3.4-1.3-4.5-5.5-.7 1.9 3.2 3.7v.1l-5 .7-.6 1.9zM105.7 108l2-2 6 5.7 1.2-1.3-5.9-5.7 2.1-2.2-1-1-5.5 5.5 1 1zM90.6 126.5l5.8-2.7-.7-1.4-4.1 2-1.2-2.4 3.9-1.8-.7-1.4-3.8 1.9-1.1-2.4 4.1-2-.6-1.3-5.8 2.7 4.2 8.8zM68.7 121.6h-1.8v9.8h1.8v-9.8zM50.2 122.5c.7-2-.2-4-2.1-5-2.3-1-4.8-.3-6.3 2.5-1.4 2.8-.6 5.3 1.7 6.5 2 1 4.1.4 5.2-1.1l-1.6-.8c-.7.9-1.8 1-2.9.5-1.4-.7-1.8-2.3-.8-4.3s2.6-2.5 4-1.8c1 .5 1.6 1.6 1.2 2.7l1.6.8zM28.1 111.8c2.6-1.9 3-4.5 1.5-6.6-1.5-2-4.1-2.6-6.7-.7-2.5 1.8-3 4.5-1.4 6.5 1.5 2.1 4 2.6 6.6.8zm-1-1.5c-1.8 1.3-3.4 1.1-4.3-.2-1-1.3-.6-2.9 1.2-4.2 1.8-1.3 3.4-1 4.3.2 1 1.3.6 3-1.2 4.2zM15.3 89.6l.5 1.6c1.6-.6 2.3-2.3 1.6-4.2-.6-2-2.2-3.1-3.8-2.6-1.3.5-1.8 1.7-1.7 3.3V89c.1 1 0 1.8-.7 2-.8.3-1.6-.3-2-1.4-.3-1 0-2 .9-2.4l-.5-1.7c-1.8.7-2.4 2.4-1.8 4.6.8 2.2 2.3 3.1 4 2.6 1.5-.5 1.8-2 1.7-3.6v-1c-.1-.7 0-1.7.7-1.9.7-.2 1.5.2 1.8 1.3.3 1 0 1.8-.7 2.2zM112.8 38.6l3 5.7 1.3-.7-2.2-4 2.4-1.3 2 3.7 1.3-.7-2-3.7 2.3-1.3 2.2 4 1.3-.6-3-5.6-8.6 4.5zM101.8 15.7l2.4 1.8-4.9 6.7 1.4 1 5-6.6 2.3 1.8 1-1.2-6.3-4.6-1 1.1zM75.2 14.7l6 1 .2-1.5-4.2-.7 1.2-8.2-1.7-.3-1.5 9.7zM51 16.6l6.1-1.8-.4-1.4-4.4 1.3-.7-2.6 4-1.2-.4-1.4-4 1.2-.8-2.6L54.8 7l-.4-1.5-6 1.8 2.6 9.4zM26.4 19.3l-1.5 1.3 9 5 1.7-1.4-3.9-9.6-1.5 1.3 3.3 7.4h-.1l-7-4zM14.5 36.5l.8-1.5c-1.5-.7-3.2 0-4 1.9-1 1.8-.7 3.7.9 4.4 1.2.7 2.4.1 3.5-1.1l.7-.9c.8-.8 1.4-1.3 2-1 .8.4 1 1.4.4 2.4-.5 1-1.3 1.5-2.2 1.2l-.8 1.5c1.7.8 3.4 0 4.4-2 1-2.1.6-3.9-1-4.6-1.5-.8-2.8.1-3.8 1.3l-.6.7c-.5.6-1.2 1.3-2 .9-.6-.3-.8-1.2-.3-2.2.5-.9 1.3-1.3 2-1z" fill="#fff"/><circle cx="8.8" cy="63.8" r="1.5" fill="#fff"/><circle cx="125.6" cy="63.8" r="1.5" fill="#fff"/><path d="M92.8 40.9a22.4 22.4 0 00-30.2-6.6l-17.2 11a19.8 19.8 0 00-8.9 13.4c-.8 4.6-.1 9.3 2 13.4A20 20 0 0035.8 88a22.4 22.4 0 0033.6 14.2l17.2-11a19.9 19.9 0 008.9-13.3c.8-4.6.1-9.3-2-13.4a20.1 20.1 0 002.7-15.8c-.6-2.8-1.8-5.4-3.4-7.7" fill="#FF3E00"/><path d="M61.2 96.1a13.9 13.9 0 01-14.7-5.4 12.5 12.5 0 01-1.7-11l.3-1 .9.6c2 1.5 4.3 2.6 6.7 3.3l.7.2v.7c-.2.9.1 1.8.6 2.5a4.1 4.1 0 005.5 1.2l17.3-11a3.6 3.6 0 001.6-3.8c-.1-.5-.4-1-.7-1.4a4.1 4.1 0 00-5.5-1.1L65.6 74a13.9 13.9 0 01-18.2-3.9 12.5 12.5 0 01-2.1-9.5 11.7 11.7 0 015.3-7.9L68 41.8c1.1-.6 2.3-1.1 3.5-1.5a13.9 13.9 0 0114.8 5.4 12.5 12.5 0 011.7 11.1l-.3 1-.9-.6c-2-1.5-4.3-2.7-6.7-3.4l-.7-.2V53c.1-1-.1-1.8-.7-2.6a4.1 4.1 0 00-5.4-1.1L55.9 60.2a3.6 3.6 0 00-1.6 3.9c.1.4.3 1 .6 1.3a4.1 4.1 0 005.5 1.2l6.6-4.2a13.9 13.9 0 0118.2 3.9 12.5 12.5 0 012.2 9.5 11.7 11.7 0 01-5.4 8L64.8 94.5c-1.1.7-2.3 1.2-3.6 1.5z" fill="#fff"/><g filter="url(#filter0_d)"><path d="M52.4 31.2c1.3-.3 4 0 6 1l-.8 3.9s-3.1-1.2-4.2-2.7c-.3-.4.4-1.3.4-1.3s-1.1 0-1.2 1c-.1 1 .4 1.8 5.1 3.4 4.7 1.6 4.3 3.7 8.1 6.2 4.1 2.7 7.3 4.2 12 6.5 4.8 2.3 11.2 3 14.2 2.9 2.9-.2 5.3-1 6.8-1.4l1.6-6.7.7.2.3-1.5c4.2.8 7.9 5.1 7 10-1.4 8-10.6 8.2-17 7.2-15.7-2.7-43.1-19.4-42-26 .5-2.4 1.7-2.4 3-2.7z" fill="#000"/></g><path d="M58 37l1.2-6.8 40.4 14 .7.2c.5 4-1.5 6.7-1.5 6.7-6.4 2.9-17 .4-21-1.5-7-3.3-15.3-8.6-19.8-12.7z" fill="#FF3E00"/><path d="M61.2 23.2c-2 5.5-2.3 8.8-2.3 8.8 2.4 3 14.2 11.3 25.2 13.2 7.4 1.3 12.1 1.8 16.2-.5l.4-2.4 1.5-8.6c1.6-9.2-10.3-16-15-16.9-2.4-.6-6.4-1.1-9.2-1.6-9.6-1.7-14.7 2.5-16.8 8z" fill="#000"/><path d="M102.1 55.2c5.8-1.5 6.3-5.6 5.7-7.3 1.4 2.4.2 6.8-6.1 8.5-4.3 1-13.2.6-30.3-10.1 12.2 6.7 22.5 11 30.7 8.9z" fill="#fff"/><defs><filter id="filter0_d" x="44.9" y="30.3" width="66.9" height="35" filterUnits="userSpaceOnUse" color-interpolation-filters="sRGB"><feFlood flood-opacity="0" result="BackgroundImageFix"/><feColorMatrix in="SourceAlpha" values="0 0 0 0 0 0 0 0 0 0 0 0 0 0 0 0 0 0 127 0"/><feOffset dy="1.4"/><feGaussianBlur stdDeviation=".7"/><feColorMatrix values="0 0 0 0 0 0 0 0 0 0 0 0 0 0 0 0 0 0 0.25 0"/><feBlend in2="BackgroundImageFix" result="effect1_dropShadow"/><feBlend in="SourceGraphic" in2="effect1_dropShadow" result="shape"/></filter></defs></svg>