<svg width="100" height="23" fill="none" xmlns="http://www.w3.org/2000/svg"><path fill-rule="evenodd" clip-rule="evenodd" d="M38.4 0c-6.2 0-11.3 5.2-11.3 11.5S32 23 38.4 23c6.3 0 11.4-5.2 11.4-11.5S44.7 0 38.4 0zm0 19.5a8 8 0 01-8-8 8 8 0 018-8 8 8 0 018 8 8 8 0 01-8 8zM88.6 0C95 0 100 5.2 100 11.5S94.9 23 88.6 23c-6.2 0-11.3-5.2-11.3-11.5S82.3 0 88.6 0zm0 19.5a8 8 0 01-7.9-8 8 8 0 018-8 8 8 0 017.9 8 8 8 0 01-8 8zM9.1.8H13v14.3H9V.8zm9.2 0H22V22h-3.7V.8zM0 .8h3.7V22H0V.8zM55.6 22V.8h16.2V22H68V4.5h-8.7V22h-3.7z" fill="#fff"/></svg>