<svg width="104" height="34" fill="none" xmlns="http://www.w3.org/2000/svg"><path d="M32.1 15.1v1l.6 2.3-.6-3.3zm-3 14.9h3.4l.2-11.6L29 30zm3.4 0h-3.4l-1.5 1.3 5-1.3zM26.8 8.4l5.3 6.7-5.3-7.6v1zm5.3 6.7l-5.4-3.7 5.4 4.8v-1zm0 0l-5.3-6.7-.1 3 5.4 3.7zm-7.7 6.3l4.7 8.6 3.6-11.6-8.3 3zm7.7-5.2l-7.7 5.2 8.2-3-.5-2.2zm-5.4-4.8l-2.3 10 7.7-5.2-5.4-4.8zm-3 10.5l-1.2 4.4 2-4.9-.8.5zm-1.2 4.4l6.6 3.7-4.6-8.6-2 5zm5 5l1.6-1.3-6.6-3.7 5 5zm-7-23l6.2 3.1.1-3h-6.3zm6.3-.8l-6.3.8 6.3.1v-.9zm0 0l-2.5-2.9-3.8 3.7 6.3-.8zm-7.6-6l1.3 6.8 3.8-3.7-5.1-3.1zm5.3 20l-6.2-6.7 5.4 7.1.8-.5zm0 0l2.2-10-8.4 3.3 6.2 6.6zm2.2-10l-6.2-3.2-2.2 6.5 8.4-3.4zm-8.4 3.3l2.2-6.5-3.7 3.4 1.5 3.1zm-2.4 6.8l7.8.3-5.4-7-2.4 6.7zm7.8.3l-7.8-.3 6.6 4.7 1.2-4.4zm-1.2 4.4L16 21.6v4.1l6.6.6zm-2-18l-1.3-6.8-3.4 2 4.7 4.8zm2 18l-6.8 1.2 11.9 3.8-5-5zm-6.8 1.2l6.8-1.2-6.6-.6-.2 1.8zm2.6-12.7l-1.5-3-2.4-.5 3.9 3.5zm-2.6 12.7L13 31l14.6.3-12-3.8zM12.5 7.8l1.9 3.5 2.4.4-4.3-4zm8 .5l-8-.5 4.3 4 3.7-3.5zm-8-.5l8 .5-4.7-4.8-3.3 4.3zm-1 8.8l6.8-1.7-4-3.6-2.8 5.3zm6.8-1.7l-6.8 1.6 4.4 5 2.4-6.6zm-2.4 6.7l-5.3 3 5.3 1.1v-4.1zm-5.3 3l5 3 .3-1.9-5.3-1zm5 3l-5-3 2.3 6.4 2.8-3.5zm-5-3l5.3-3-5.4.5.1 2.5zm5.3-3l-4.4-5-1 5.5 5.4-.5zM13 31l-2.8 1.4 17.5-1-14.7-.4zm-2.8 0v1.4l2.8-1.4h-2.8zm-.4-8.2l.9 1.8-.1-2.5-.8.7zm.9 1.8l-1-1.8-.3 2.4 1.3-.6zm-.5 7.8V31l-.8-1 .8 2.5zM9.3 30l1.3-5.3-1.3.6V30zm0 0l.7 1 3 .1L9.2 30zm1.3-5.3L9.3 30 13 31l-2.3-6.4zm5.2-21.1l-7 1 3.7 3.3 3.3-4.3zm-7 12.1l2.7 1 2.9-5.3-5.7 4.3zm3.7-7.8l-3.8 7.9 5.7-4.4-2-3.5zm-3.9 9.6l1.9 4.7 1-5.6-2.9.9zm.1-1.8v1.8l2.8-.9-2.8-.9zM8.4.3l7.4 3.2 3.4-2L8.4.3zm7.4 3.2L8.4.3l.3 4.3 7.1-1.1zM6.2 18.6l4.3 3.5-1.8-4.7-2.5 1.2zm4.3 3.5l-4.3-3.5 3.5 4.2.8-.7zm-1.9-4.8l.1-1.7-2.5 3 2.4-1.3zm.7 8l-3.1 2.4L9.3 30v-4.7zM6 3.5l2.7 1L8.4.1 6 3.6zm-.7 29.5l4.8-.7-.8-2.5-4 3.2zm.9-5.4l-.9 5.4 4-3.2-3.1-2.2zm3.9 4.7l-4.8.7 22.3-1.8L10 32.4zm-5-28l3.6.1L6 3.6l-.8.9zm-.4 18.2l4.6 2.6.4-2.4-5-.2zm4.6 2.6l-4.6-2.6 1.5 5.1 3.1-2.5zm-3-6.6l-1.6 4 5 .2-3.5-4.2zm2.4-14l-3.5-.1-1 1.3 4.5-1.3zm0 11l3.8-7.8-8.3-2 4.5 9.8zm3.8-7.8L8.7 4.5 4.2 5.8l8.3 2zM4.7 22.6l1.5-4-2.1.1.6 4zm0 0l-1 5 2.5.1-1.5-5zm-1 5l1.6 5.5.9-5.4H3.7zm-.4-9l.8.1-1.7-.8 1 .6zm-1.5-1.4l7-1.6-4.5-9.8-2.5 11.4zm4.4 1.4l2.5-3-6.9 1.6 4.4 1.4zm-2.1.1l-2.3-1.5.6.7 1.7.8zm2.1 0l-4.4-1.5 2.3 1.5h2.1zM.7 20.5l2.6-2-.9-.7-1.7 2.7zm0 0l4 2-.6-3.9-3.4 1.9zm2.6-2l-2.6 2L4 18.7l-.7-.2zm-2.6 2l3 7 1-5-4-2zm1.7-2.7l-.6-.7-1.1 3.4 1.7-2.7zm1.3 9.7l-3-7L5.3 33l-1.6-5.5zM1.8 17.2L.2 4.5l.5 16 1.1-3.3zM4.2 5.8l-4-1.3 1.6 12.7L4.2 5.8zm0 0l1-1.3h-5l4 1.3zm-4-1.3L6 3.6 8.4.2.2 4.5zm0 0h5l.8-.9-5.8.9z" stroke="#fff" stroke-width=".7" stroke-linejoin="round"/><path d="M41.1 5.2c0 .3 0 .5.2.6 0 .2.2.3.4.5l.7.3a36.2 36.2 0 002 .8l1.2.7a3 3 0 011 2.5c0 .6 0 1.1-.3 1.5-.2.5-.5.8-.8 1a4 4 0 01-1.3.6l-1.5.2a8 8 0 01-3.8-1l.5-1.8 1.4.8 1.8.3c.8 0 1.3 0 1.6-.3.4-.3.5-.6.5-1s0-.7-.2-.9l-.6-.6L43 9l-.7-.2a12 12 0 01-1-.4l-1.1-.6-.8-1c-.2-.4-.3-.9-.3-1.4 0-.6.1-1 .3-1.4.2-.4.4-.7.8-.9l1-.5 1.5-.1a8.6 8.6 0 013.3.6l-.5 1.8a4.1 4.1 0 00-1.4-.6 5.7 5.7 0 00-1.5-.2c-.5 0-.9 0-1.2.2-.3.2-.4.5-.4 1zm6-2.7h2.2l3.6 8.8L56 2.5h2l-4.5 11.2h-1.5l-5-11.2zM65 8.6h-3.4V12h4.9v1.7h-6.9V2.5h6.5v1.7h-4.5V7H65v1.7zm5.6 3.4h4.6v1.7h-6.6V2.5h2V12zm12.7-7.8h-3.2v9.5h-2V4.2H75V2.5h8.4v1.7zm7.2 4.4h-3.3V12H92v1.7h-6.8V2.5h6.5v1.7h-4.5V7h3.3v1.7zM41.1 22.1c0 .2 0 .4.2.6l.4.4.7.4a36.4 36.4 0 002 .8c.5.2.9.4 1.2.7a3 3 0 011 2.5c0 .6 0 1-.3 1.5-.2.4-.5.8-.8 1a4 4 0 01-1.3.5c-.5.2-1 .2-1.5.2a8 8 0 01-3.8-1l.5-1.7 1.4.8 1.8.3c.8 0 1.3-.1 1.6-.4.4-.2.5-.6.5-1 0-.3 0-.6-.2-.8l-.6-.6-.8-.4-.7-.3a12 12 0 01-1-.4c-.5-.1-.8-.3-1.1-.6-.3-.2-.6-.6-.8-1-.2-.3-.3-.8-.3-1.4 0-.5.1-1 .3-1.3.2-.4.4-.7.8-1l1-.4 1.5-.2a8.6 8.6 0 013.3.6l-.5 1.8a4.1 4.1 0 00-1.4-.6 5.7 5.7 0 00-1.5-.2c-.5 0-.9.1-1.2.3-.3.2-.4.5-.4.9zm15.7-.3c-.4-.3-.8-.5-1.4-.6-.5-.2-1-.2-1.7-.2a4 4 0 00-1.5.2c-.5.2-.8.5-1.1.9-.3.3-.5.7-.6 1.2l-.2 1.6c0 1.4.3 2.4.9 3.1.6.7 1.4 1 2.5 1a5.4 5.4 0 003.2-1l.5 1.7a7 7 0 01-6.2.6 4.8 4.8 0 01-2.6-3 7.2 7.2 0 010-4.5c.2-.7.6-1.3 1-1.8.5-.5 1.1-1 1.8-1.2.7-.3 1.5-.5 2.4-.5a8.5 8.5 0 013.4.7l-.4 1.8zm12 8.7h-2v-4.9h-5.3v5h-2V19.3h2v4.5h5.4v-4.5h2v11.1zm7.8-11.2c.9 0 1.7.2 2.3.5a5.2 5.2 0 012.8 3 6.5 6.5 0 01-1 6.2 5.2 5.2 0 01-4.2 1.7c-1 0-1.7-.1-2.4-.4-.7-.3-1.2-.8-1.6-1.3-.5-.5-.8-1-1-1.8a7.2 7.2 0 010-4.4 5 5 0 012.8-3c.6-.3 1.4-.5 2.3-.5zm0 9.8l1.5-.3a3 3 0 001.7-2.2L80 25c0-.6 0-1.1-.2-1.6l-.6-1.3c-.3-.4-.7-.6-1.1-.8-.5-.2-1-.3-1.6-.3-.6 0-1 0-1.5.3-.4.2-.8.4-1 .8-.3.3-.5.7-.6 1.2a7 7 0 00-.2 1.6c0 1.4.3 2.4.9 3.1.5.7 1.3 1 2.4 1zm12.6-9.8c.9 0 1.7.2 2.3.5a5.2 5.2 0 012.8 3 6.5 6.5 0 01-1 6.2 5.2 5.2 0 01-4.2 1.7c-1 0-1.7-.1-2.4-.4-.7-.3-1.2-.8-1.6-1.3-.5-.5-.8-1-1-1.8a7.2 7.2 0 010-4.4 5 5 0 012.8-3c.6-.3 1.4-.5 2.3-.5zm0 9.8l1.5-.3a3 3 0 001.7-2.2l.2-1.6c0-.6 0-1.1-.2-1.6l-.6-1.3c-.3-.4-.7-.6-1.1-.8-.5-.2-1-.3-1.6-.3-.6 0-1 0-1.5.3-.4.2-.8.4-1 .8-.3.3-.5.7-.6 1.2a7 7 0 00-.2 1.6c0 1.4.3 2.4.9 3.1.5.7 1.3 1 2.4 1zm9.7-.3h4.7v1.7H97V19.4h2v9.4z" fill="#fff"/></svg>