<svg width="241" height="66" fill="none" xmlns="http://www.w3.org/2000/svg"><path d="M70.2314 20.7644h-.4377c0 2.43-4.3675 5.7271-4.3675 8.1666v2.8683h4.8052c6.0326 0 9.8292 6.0416 9.8292 12.1404s-4.8908 11.0349-10.9234 11.0349c-6.0327 0-10.9234-4.9361-10.9234-11.0349L47.2903 46.141C47.2903 58.329 57.0719 66 69.1372 66c12.0652 0 21.8468-9.8818 21.8468-22.0698s-8.6874-23.1658-20.7526-23.1658zM23.9972 54.8126h-1.9601c-6.0897 0-11.0185-4.9362-11.0185-11.0349v-7.1184c.1807-.1716.352-.3336.5328-.4956 5.2714-4.7742 13.4164-4.3644 18.1835.9244 2.1409 2.3728 3.3208 5.4507 3.3208 8.6431 0 5.0124-4.063 9.0814-9.0585 9.0814zm-1.9601-32.657c-4.0154 0-7.7739 1.0673-11.0185 2.9351V0H8.15449C5.71861 0 2.42637 4.26913 0 4.27866V44.0826C0 56.1848 9.86722 66 22.0371 66c12.1699 0 22.0371-9.8152 22.0371-21.9174 0-12.1118-9.8672-21.927-22.0371-21.927zM69.0039 11.2446h.4282c0-2.39182 4.396-5.7652 4.396-8.15705V.238281h-4.8242C56.9102.238281 47.1 7.89032 47.1 20.0497l10.952 2.2013c0-6.0797 4.9003-11.0064 10.9519-11.0064zM122.203 54.4314l-3.625-1.0863c-.59 2.2298-2.036 3.3448-4.339 3.3448-1.599 0-2.836-.5623-3.711-1.6867-.875-1.1245-1.313-2.7254-1.313-4.8028 0-2.0774.447-3.6783 1.351-4.8028.904-1.1244 2.151-1.6866 3.749-1.6866 1.104 0 1.979.2477 2.626.7432.647.4956 1.123 1.3056 1.428 2.43l3.568-1.5151c-.514-1.62-1.456-2.8398-2.807-3.6593-1.361-.8195-3.026-1.2293-4.986-1.2293-1.827 0-3.426.3907-4.777 1.1721-1.36.7814-2.407 1.9059-3.14 3.3543-.732 1.458-1.094 3.1924-1.094 5.1935 0 2.0012.362 3.7355 1.094 5.1935.733 1.458 1.789 2.5824 3.159 3.3543 1.37.7814 2.979 1.1721 4.824 1.1721 1.961 0 3.645-.4574 5.053-1.3817 1.408-.9244 2.388-2.2966 2.94-4.1072zm8.707-9.3768c-2.303 0-4.092.6575-5.377 1.9726-1.284 1.315-1.931 3.1351-1.931 5.4602 0 2.3252.647 4.1453 1.931 5.4603 1.285 1.3151 3.074 1.9726 5.377 1.9726 2.302 0 4.101-.6575 5.385-1.9726 1.285-1.315 1.922-3.1351 1.922-5.4603 0-2.3251-.647-4.1452-1.922-5.4602-1.275-1.3151-3.083-1.9726-5.385-1.9726zm0 2.916c1.103 0 1.941.3811 2.531 1.1339.58.7529.875 1.8868.875 3.3829 0 1.5057-.295 2.6397-.875 3.3829-.581.7529-1.428 1.134-2.531 1.134-1.104 0-1.951-.3716-2.522-1.134-.58-.7528-.875-1.8772-.875-3.3829 0-1.5056.285-2.63.875-3.3829.571-.7528 1.418-1.1339 2.522-1.1339zm19.753-8.8909v8.605c-.419-.8195-1.009-1.458-1.77-1.9249-.761-.467-1.655-.6957-2.683-.6957-1.903 0-3.397.6575-4.482 1.9726-1.084 1.315-1.627 3.1447-1.627 5.4889 0 2.3251.543 4.1452 1.627 5.4507 1.085 1.3055 2.579 1.9535 4.482 1.9535 1.066 0 2.017-.2668 2.835-.8004.828-.5337 1.447-1.2484 1.875-2.1441l.171 2.6587h3.483V39.0797h-3.911zm-3.311 17.8389c-1.047 0-1.865-.3812-2.455-1.1435-.59-.7624-.885-1.8583-.885-3.2877s.295-2.5252.885-3.2876c.59-.7623 1.408-1.1435 2.455-1.1435 1.027 0 1.836.3812 2.426 1.1245.59.7528.885 1.8105.885 3.1637v.2859c0 1.3722-.295 2.43-.885 3.1732-.59.7433-1.399 1.115-2.426 1.115zm23.864-4.4883c0-2.3633-.6-4.1834-1.789-5.4603-1.189-1.277-2.893-1.9154-5.1-1.9154-2.284 0-4.054.6575-5.31 1.9535-1.256 1.3055-1.884 3.1351-1.884 5.4793 0 2.3443.647 4.1739 1.941 5.4794 1.294 1.3055 3.121 1.9535 5.481 1.9535 1.618 0 2.959-.3049 4.035-.9053 1.075-.6003 1.846-1.477 2.293-2.6205l-3.197-1.1721c-.21.5717-.581 1.0101-1.114 1.315-.532.3049-1.208.4574-2.026.4574-1.98 0-3.169-1.0101-3.569-3.0303h10.106c.095-.486.133-1.0006.133-1.5342zm-6.908-4.4883c.913 0 1.655.2858 2.226.8481.571.5622.933 1.3817 1.085 2.4395h-6.651c.152-1.0864.504-1.9059 1.066-2.4586.561-.5527 1.322-.829 2.274-.829zm21.609 11.6924h4.424l-4.967-7.6615c1.237-.4003 2.189-1.0578 2.855-1.9726.666-.9148.999-2.0488.999-3.402 0-1.8487-.609-3.278-1.817-4.3072-1.209-1.0196-2.893-1.5247-5.034-1.5247h-8.307v18.868h3.882v-7.2327h3.54l4.425 7.2327zm-7.965-15.7233h3.911c1.142 0 1.989.2287 2.531.667.543.4479.819 1.1435.819 2.0774s-.276 1.6295-.819 2.0774c-.542.4479-1.389.6671-2.531.6671h-3.911v-5.4889zm16.271-.629c1.618 0 2.427-.6956 2.427-2.0869 0-1.4103-.809-2.1155-2.427-2.1155-1.617 0-2.426.7052-2.426 2.1155 0 1.3913.809 2.0869 2.426 2.0869zm1.942 2.0584h-3.911v14.2939h3.911V45.3405zm11.989 11.6067h-4.825c-.513 0-.913-.0953-1.198-.2954-.286-.2002-.429-.486-.429-.8767 0-.6671.371-1.0959 1.114-1.2865.78.1715 1.636.2573 2.569.2573 2.036 0 3.635-.4288 4.805-1.3055 1.17-.8672 1.76-2.0488 1.76-3.5259 0-.8385-.19-1.5818-.561-2.2298-.371-.648-.914-1.1817-1.618-1.6009.191-.4193.514-.7529.99-1.0006.466-.2478 1.046-.3717 1.76-.3717.266 0 .466.0096.6.0286l-.514-2.8016c-1.218-.0762-2.189.2096-2.902.8481-.714.6385-1.199 1.5247-1.437 2.6492-.895-.2478-1.856-.3717-2.883-.3717-2.018 0-3.616.4384-4.777 1.3055-1.17.8672-1.76 2.0584-1.76 3.5545 0 .8576.19 1.6199.571 2.2679.38.6576.932 1.2007 1.655 1.62-.704.2478-1.256.6194-1.655 1.115-.4.4955-.6 1.0863-.6 1.7724 0 .6671.191 1.2483.571 1.7343.381.486.895.8672 1.542 1.1245-.857.2096-1.504.5527-1.941 1.0292-.438.4764-.657 1.0387-.657 1.6866 0 1.0864.571 1.944 1.722 2.573 1.152.6289 2.912.9434 5.291.9434 2.302 0 4.158-.4289 5.566-1.2865 1.408-.8576 2.112-2.0488 2.112-3.5735 0-1.2769-.428-2.2584-1.275-2.9445-.837-.6957-2.036-1.0387-3.596-1.0387zm-2.769-9.4341c.78 0 1.417.2192 1.893.6576.485.4383.733 1.0101.733 1.7152 0 .7243-.248 1.3056-.733 1.7439-.485.4384-1.123.6575-1.893.6575-.762 0-1.39-.2191-1.865-.6575-.486-.4383-.733-1.0196-.733-1.7439 0-.7051.247-1.2769.733-1.7152.475-.4384 1.103-.6576 1.865-.6576zm.285 15.5805c-1.408 0-2.464-.1525-3.168-.4384-.705-.2954-1.057-.7147-1.057-1.2483 0-.8577.79-1.2865 2.37-1.2865h3.882c.761 0 1.303.1048 1.636.305.334.2001.495.4955.495.9052 0 .5146-.361.9339-1.084 1.2674-.714.324-1.742.4956-3.074.4956zm17.47-18.039c-1.047 0-1.97.2287-2.75.667-.79.4479-1.408 1.134-1.846 2.0488v-8.6907h-3.911v20.5547h3.911v-7.5472c0-1.3341.314-2.3251.952-2.9731.637-.648 1.417-.972 2.331-.972 1.694 0 2.54 1.0863 2.54 3.259v8.2333h3.911v-9.3768c0-1.6772-.466-2.9636-1.418-3.8594-.942-.8957-2.179-1.3436-3.72-1.3436zM240.4 56.1467c-.628.5337-1.36.8005-2.198.8005-1.313 0-1.969-.6575-1.969-1.9726v-6.7181h4.624v-2.916h-4.624v-4.3739l-3.911 1.0863v3.2876h-2.598v2.916h2.598v7.3471c0 2.8778 1.589 4.3167 4.767 4.3167.761 0 1.485-.1048 2.189-.3144.694-.2097 1.265-.4956 1.722-.8577l-.6-2.6015z" fill="#fff"/></svg>