<svg width="144" height="53" fill="none" xmlns="http://www.w3.org/2000/svg"><g clip-path="url(#clip0)"><path d="M16.174 31.4462c0 3.3826-2.6094 6.3569-5.8568 6.3569-3.47932 0-5.85685-2.9549-5.85685-6.3569 0-3.5965 2.39686-6.357 5.85685-6.357 3.2667.0194 5.8568 2.7605 5.8568 6.357zm-5.8568-9.5258c-4.98702 0-9.12354 4.0242-9.12354 9.5258 0 5.2877 4.13652 9.5257 9.12354 9.5257 4.7744 0 8.9109-4.238 8.9109-9.5257 0-5.5016-4.1365-9.5258-8.9109-9.5258zM26.825 30.6102c1.9522 0 3.9045 1.0498 3.9045 3.3826 0 2.9549-1.9523 3.8103-4.1365 3.8103-2.1649 0-3.6919-1.2636-3.6919-3.8103.0193-2.3328 1.9716-3.3826 3.9239-3.3826zm6.9586 9.7396V28.705c0-4.86-1.9523-6.7652-6.5141-6.7652-1.527 0-3.4793.4277-4.5617.6415l-.8699 3.5965c1.7397-1.0498 3.4794-1.0498 4.9871-1.0498 2.3968 0 3.9045.2139 3.9045 2.7606v1.4774c-1.0824-1.2636-2.6095-1.6913-4.3491-1.6913-3.2667 0-6.5141 2.3328-6.5141 6.357 0 4.0241 2.3969 6.9791 6.0888 6.9791 2.1649 0 4.1365-.4277 4.987-2.5467v2.5467l2.8415-.661zM37.263 35.898c.8698 1.2636 1.9523 2.119 3.4793 2.119 1.2951 0 2.8221-.6415 2.8221-2.3329 0-4.6656-8.2537-1.4774-8.2537-8.2621 0-3.1688 2.3969-5.5016 5.4316-5.5016 2.3969 0 3.6919.6415 5.4316 2.3328l-1.9523 2.3329c-1.0824-1.0498-1.7396-1.6913-3.2667-1.6913-1.2951 0-2.6095.4277-2.6095 2.119 0 4.0241 8.2537 1.0497 8.2537 8.2621 0 3.3826-2.6094 5.7155-5.6442 5.7155-2.6095 0-4.3491-.8554-5.8568-2.955l2.1649-2.1384zM47.8943 40.9719V22.3481l3.2667-.4277v18.41l-3.2667.6415zm1.5271-26.0306l2.1649 2.7606-1.9523 2.7605-2.1649-2.7605 1.9523-2.7606zM54.8525 35.898c.8698 1.2636 1.9522 2.119 3.4793 2.119 1.2951 0 2.8221-.6415 2.8221-2.3329 0-4.6656-8.2537-1.4774-8.2537-8.2621 0-3.1688 2.3968-5.5016 5.4316-5.5016 2.3968 0 3.6919.6415 5.4316 2.3328l-1.9523 2.3329c-.8698-1.0498-1.7397-1.6913-3.2667-1.6913-1.2951 0-2.3969.4277-2.3969 2.119 0 4.0241 8.0411 1.0497 8.0411 8.2621 0 3.3826-2.6095 5.7155-5.6442 5.7155-2.6095 0-4.3491-.8554-5.8568-2.955l2.1649-2.1384zM90.0322 31.4461c0 4.0242-3.0347 7.4068-6.7267 7.4068-3.9045 0-6.514-3.3826-6.514-7.4068 0-3.5964 2.6095-7.1929 6.514-7.1929 3.4794 0 6.7267 2.5467 6.7267 7.1929zm0-5.7154h-.2126c-1.5271-2.119-3.692-3.5965-6.5141-3.5965-4.7743 0-8.4663 4.0242-8.4663 9.3119 0 5.5017 3.692 9.312 8.4663 9.312 2.8221 0 5.219-1.4775 6.5141-3.3827h.2126v3.3827l1.7397-.4277V14.7275l-1.7397.4277v10.5755zM93.9566 40.7775V22.5619l1.9522-.4277v18.2156l-1.9522.4277zm2.3775-24.3587l-1.527 1.9051-1.5271-1.9051 1.5271-1.6913 1.527 1.6913zM114.813 40.7775V22.5619l1.952-.4277v18.2156l-1.952.4277zm2.378-24.3587l-1.527 1.9051-1.527-1.9051 1.527-1.6913 1.527 1.6913zM120.457 18.1101l1.953-1.0497v5.5016h4.562v2.119h-4.562v11.0032c0 2.119.87 2.9549 3.034 2.9549h1.528v1.9052c-.658 0-1.083.2138-1.74.2138-3.035 0-4.775-1.9052-4.775-5.0739V24.681h-2.164l.425-2.119h1.739v-4.4519z" fill="#fff"/><path d="M128.923 34.6344c0-2.955 1.74-4.6657 4.349-4.6657 2.397 0 4.137 1.6913 4.137 4.4518 0 2.5467-1.74 4.4519-4.137 4.4519-2.184 0-4.349-1.7108-4.349-4.238zm-.213-9.1175c1.295-.4277 3.267-1.2637 4.775-1.2637 2.165 0 3.904 1.2637 3.904 2.7606v2.9549c-1.082-1.0498-2.822-2.119-4.329-2.119-3.692 0-6.089 2.7605-6.089 6.7652 0 3.8103 2.822 6.1432 6.301 6.1432 1.952 0 3.267-.8554 3.905-2.119h.212v2.119l1.953-.4277V26.5666c0-2.9549-2.61-4.4518-5.219-4.4518-1.74 0-3.267.4277-4.775 1.0498l-.638 2.3523zM143.053 40.3498l-1.952.4277V15.1552l1.952-.4277v25.6223zM105.033 24.8947c3.034 0 6.088 2.7606 6.088 7.193 0 4.4324-3.266 6.7652-6.088 6.7652-3.035 0-6.0892-2.3328-6.0892-6.7652 0-4.4324 3.0542-7.193 6.0892-7.193zm-7.1717 20.7429c2.3967 5.9292 7.3837 5.9292 7.3837 5.9292 8.254 0 7.597-8.8842 7.597-8.8842V32.3015c0-3.1688-.657-5.2878-2.165-6.9791l-.425-.2138c.212.2138.657.2138 1.082.2138.425 0 .87 0 1.527-.4277l.657-2.9549c-1.952.6415-4.136 1.0498-6.301 1.0498-.657 0-1.527-.2138-2.165-.2138-4.349 0-7.8286 3.5964-7.8286 9.7395 0 2.7606 1.5271 5.9293 3.4796 6.9791 0 0 5.219 3.8103 9.781-.6415l.425-.8554v4.8601c0 7.4067-5.644 6.5708-5.644 6.5708-3.692 0-4.562-2.9549-5.4321-4.238l-1.9716.4472zM85.2583 17.274c0-5.2878-4.987-8.68981-10.8632-10.38112l-.6572 1.04978c5.8569 1.47746 10.206 5.28774 10.206 10.38114l1.3144-1.0498zM57.4623 11.7725c1.9523-4.86005 7.8284-5.92926 14.5551-5.50158L70.935 7.53454c-6.9587.64153-10.6506.85538-12.3903 5.71546l-1.0824-1.4775z" fill="#fff"/><path d="M73.5252 6.25153s-4.5618 5.07387-2.1649 18.40997c0 0 4.7744 14.1914-4.3492 16.3104l-1.295-3.1688s6.0888-1.6913 3.0347-12.9083c0 0-3.6919-9.3119 4.7744-18.64327z" fill="#029049"/><path d="M60.4964 1.81906c3.9046-2.97436 8.4664-.42768 12.6029 3.16877l-.4253.64153C67.687 2.67444 64.8456.341602 60.2838 3.29653l.2126-1.47747zM88.5247 6.05704c-3.2667-3.8103-8.0411-3.38261-13.4727-.85537l-.6572.85537c5.4316-2.54668 10.6506-2.33284 14.1106 1.69131l.0193-1.69131z" fill="#fff"/></g><defs><clipPath id="clip0"><path fill="#fff" transform="translate(.919922 .0800781)" d="M0 0h142.6v52.08H0z"/></clipPath></defs></svg>